<svg width="117" height="77" viewBox="0 0 117 77" fill="none" xmlns="http://www.w3.org/2000/svg">
<g opacity="0.3">
<mask id="path-1-inside-1_294_7413" fill="white">
<path d="M0.000180864 24.1208C-0.0168777 23.4044 1.17722 23.8991 1.68898 23.4044C2.20074 22.9097 2.13251 22.8244 2.64427 22.3297C3.15603 21.835 3.13896 21.8179 3.66778 21.3232C4.1966 20.8285 4.1966 20.8456 4.70836 20.3509C5.22011 19.8562 5.23716 19.8733 5.76598 19.3956C6.2948 18.918 5.88541 18.4915 6.39716 17.9968C6.90892 17.5021 7.1989 17.8092 7.71066 17.3145C8.22241 16.8198 7.89831 16.4615 8.41007 15.9839C8.92182 15.5063 8.99005 15.5574 9.51886 15.0627C10.0477 14.568 10.1842 14.7045 10.6959 14.2098C11.2077 13.7151 11.1906 13.681 11.7024 13.1863C12.2141 12.6916 12.6065 13.101 13.1182 12.6063C13.63 12.1116 13.1865 11.6339 13.6982 11.1392C14.21 10.6445 14.3465 10.781 14.8753 10.2863C15.4041 9.79161 15.5405 9.94516 16.0523 9.45046C16.5641 8.95576 16.6152 8.98987 17.1441 8.51223C17.6729 8.03459 17.7752 8.13694 18.3041 7.64224C18.8329 7.14754 18.577 6.89167 19.1058 6.39697C19.6346 5.90227 19.3446 5.59521 19.8564 5.10051C20.3681 4.60582 20.4022 4.63994 20.9311 4.14524C21.4599 3.65054 21.5452 3.73582 22.074 3.24112C22.6028 2.74642 22.6199 2.76348 23.1487 2.26878C23.6775 1.77408 23.9504 2.04702 24.4622 1.55232C24.974 1.05763 24.6157 0.460583 25.2981 0.187646C25.9804 -0.0852919 26.1169 0.716458 26.8333 0.716458C27.5498 0.716458 27.5669 0 28.2833 0C28.9998 0 29.0168 0.597048 29.7333 0.597048C30.4498 0.597048 30.4668 0.0170492 31.2003 0.0170492C31.9339 0.0170492 31.9339 0.784693 32.6674 0.784693C33.4009 0.784693 33.4009 0.272931 34.1344 0.272931C34.8679 0.272931 34.8679 0.238819 35.6015 0.238819C36.335 0.238819 36.335 0.102347 37.0685 0.102347C37.802 0.102347 37.802 0.255868 38.5185 0.255868C39.2349 0.255868 39.252 0.187646 39.9685 0.187646C40.6849 0.187646 40.702 0.784693 41.4184 0.784693C42.1349 0.784693 42.152 0.307055 42.8684 0.307055C43.5849 0.307055 43.6019 0.528812 44.3184 0.528812C45.0349 0.528812 45.0519 0.136459 45.7854 0.136459C46.519 0.136459 46.519 0.767631 47.2525 0.767631C47.986 0.767631 47.986 0.221757 48.7195 0.221757C49.453 0.221757 49.453 0.562924 50.1866 0.562924C50.9201 0.562924 50.9201 0.136459 51.6536 0.136459C52.3871 0.136459 52.3871 0.631159 53.1206 0.631159C53.8542 0.631159 53.8542 0.579986 54.5877 0.579986C55.3212 0.579986 55.3212 0.255868 56.0547 0.255868C56.7882 0.255868 56.7882 0.801743 57.5218 0.801743C58.2553 0.801743 58.2553 0.801743 58.9888 0.801743C59.7223 0.801743 59.7223 0.272931 60.4558 0.272931C61.1893 0.272931 61.1893 0.0852851 61.9229 0.0852851C62.6564 0.0852851 62.6564 0.73352 63.3899 0.73352C64.1234 0.73352 64.1234 0.289993 64.8569 0.289993C65.5905 0.289993 65.5905 0.341167 66.324 0.341167C67.0575 0.341167 67.0575 0.545874 67.791 0.545874C68.5245 0.545874 68.5245 0.136459 69.258 0.136459C69.9916 0.136459 69.9916 0.545874 70.7251 0.545874C71.4586 0.545874 71.4586 0.272931 72.1921 0.272931C72.9257 0.272931 72.9257 0.545874 73.6592 0.545874C74.3927 0.545874 74.3927 0.39234 75.1262 0.39234C75.8597 0.39234 75.8597 0.682333 76.5933 0.682333C77.3268 0.682333 77.3268 0.0852851 78.0603 0.0852851C78.7938 0.0852851 78.7938 0.136459 79.5273 0.136459C80.2608 0.136459 80.2608 0.102347 80.9944 0.102347C81.7279 0.102347 81.7279 0.579986 82.4614 0.579986C83.1949 0.579986 83.1949 0.869979 83.9285 0.869979C84.662 0.869979 84.662 0.494701 85.3955 0.494701C86.129 0.494701 86.129 0.102347 86.8625 0.102347C87.596 0.102347 87.596 0.136459 88.3296 0.136459C89.0631 0.136459 89.0631 0.716458 89.8137 0.716458C90.5642 0.716458 90.4619 0.528805 91.1442 0.801743C91.8266 1.07468 91.8948 0.852931 92.4066 1.34763C92.9183 1.84233 92.5771 2.21761 93.0889 2.71231C93.6007 3.20701 94.0954 2.69526 94.6242 3.1729C95.153 3.65054 95.0165 3.787 95.5453 4.2817C96.0742 4.7764 95.733 5.11757 96.2618 5.59521C96.7906 6.07286 97.2853 5.5611 97.7971 6.03874C98.3088 6.51638 98.1383 6.70401 98.6671 7.19871C99.1959 7.69341 98.9912 7.89812 99.52 8.37576C100.049 8.8534 99.8612 9.05812 100.39 9.53576C100.919 10.0134 100.936 10.0134 101.465 10.5081C101.993 11.0028 102.232 10.7469 102.761 11.2245C103.29 11.7022 103.188 11.8216 103.699 12.3163C104.211 12.811 104.365 12.6575 104.876 13.1522C105.388 13.6469 105.32 13.7322 105.849 14.2269C106.378 14.7216 106.685 14.3804 107.213 14.8751C107.742 15.3698 107.282 15.8474 107.81 16.3421C108.339 16.8368 108.459 16.7003 108.988 17.195C109.516 17.6897 109.278 17.9286 109.806 18.4233C110.335 18.918 110.335 18.918 110.847 19.4127C111.359 19.9074 111.853 19.4127 112.365 19.8903C112.877 20.3679 112.655 20.6409 113.184 21.1356C113.713 21.6303 113.679 21.6644 114.19 22.1762C114.702 22.6879 115.06 22.3126 115.589 22.8244C116.118 23.3361 116.323 23.4044 116.306 24.1208C116.289 24.8373 115.76 24.5473 115.214 25.0249C114.668 25.5026 114.668 25.5026 114.122 25.9802C113.576 26.4579 113.73 26.6284 113.184 27.1061C112.638 27.5837 112.723 27.6861 112.195 28.1637C111.666 28.6414 111.376 28.3172 110.83 28.8119C110.284 29.3066 110.42 29.4431 109.875 29.9208C109.329 30.3984 109.09 30.1425 108.561 30.6202C108.032 31.0978 108.476 31.6266 107.947 32.1043C107.418 32.5819 106.855 31.9678 106.309 32.4625C105.763 32.9572 105.866 33.0595 105.32 33.5542C104.774 34.0489 105.115 34.4242 104.586 34.9189C104.058 35.4136 103.921 35.2601 103.375 35.7378C102.829 36.2154 102.863 36.2666 102.318 36.7442C101.772 37.2218 101.448 36.8636 100.902 37.3412C100.356 37.8189 100.714 38.2283 100.168 38.723C99.6224 39.2177 99.4518 39.013 98.9059 39.4906C98.36 39.9683 98.633 40.2924 98.0871 40.77C97.5412 41.2477 97.2341 40.9065 96.6883 41.3841C96.1424 41.8618 96.313 42.0494 95.7671 42.5441C95.2212 43.0388 95.2724 43.0729 94.7265 43.5506C94.1807 44.0282 94.2318 44.0964 93.686 44.5741C93.1401 45.0517 92.833 44.7105 92.2871 45.2052C91.7413 45.6999 91.7583 45.717 91.2125 46.1946C90.6666 46.6723 90.5813 46.587 90.0354 47.0817C89.4896 47.5764 89.8136 47.9346 89.2678 48.4123C88.7219 48.8899 88.6025 48.7534 88.0566 49.2481C87.5107 49.7428 87.4937 49.7087 86.9478 50.2034C86.402 50.6981 86.5896 50.9028 86.0437 51.3805C85.4978 51.8581 85.4808 51.8581 84.9349 52.3358C84.389 52.8134 84.3379 52.7622 83.792 53.2569C83.2461 53.7516 83.0243 53.4957 82.4785 53.9904C81.9326 54.4851 81.8302 54.3657 81.2844 54.8434C80.7385 55.321 81.0114 55.6451 80.4656 56.1228C79.9197 56.6004 79.9197 56.6174 79.3909 57.0951C78.862 57.5727 78.7597 57.4874 78.2309 57.9651C77.7021 58.4427 77.4803 58.2039 76.9344 58.6986C76.3885 59.1933 76.5591 59.3639 76.0133 59.8586C75.4674 60.3533 75.3309 60.1827 74.768 60.6603C74.205 61.138 74.5633 61.5474 74.0174 62.025C73.4715 62.5027 73.1133 62.1103 72.5674 62.588C72.0215 63.0656 72.3798 63.475 71.8168 63.9526C71.2539 64.4303 70.8786 64.0038 70.3328 64.4815C69.7869 64.9591 69.9745 65.1809 69.4286 65.6756C68.8828 66.1702 69.0363 66.3409 68.4904 66.8355C67.9445 67.3302 67.7399 67.1085 67.194 67.5861C66.6481 68.0638 66.4093 67.825 65.8634 68.3026C65.3175 68.7802 65.3516 68.8314 64.8058 69.3261C64.2599 69.8208 64.7205 70.3326 64.1576 70.8102C63.5946 71.2878 63.1852 70.8102 62.6393 71.3049C62.0935 71.7996 62.2299 71.9531 61.684 72.4478C61.1382 72.9425 61.1552 72.9766 60.6094 73.4543C60.0635 73.9319 59.927 73.7954 59.3641 74.2901C58.8011 74.7848 59.1594 75.4672 58.4259 75.4842C57.6923 75.5013 58.0847 74.7507 57.5388 74.2731C56.9929 73.7955 56.6347 74.2049 56.0888 73.7102C55.5429 73.2155 55.7647 72.9937 55.2188 72.499C54.673 72.0043 54.7924 71.8849 54.2465 71.4072C53.7006 70.9296 53.4959 71.1684 52.95 70.6737C52.4042 70.179 52.6942 69.872 52.1483 69.3943C51.6024 68.9167 51.5512 68.9849 51.0054 68.4902C50.4595 67.9955 50.4254 68.0638 49.8795 67.5691C49.3336 67.0744 49.4871 66.9209 48.9413 66.4432C48.3954 65.9656 47.8495 66.5797 47.3037 66.085C46.7578 65.5903 46.9625 65.3685 46.4166 64.8738C45.8707 64.3791 46.0925 64.1403 45.5466 63.6456C45.0007 63.1509 44.8984 63.2873 44.3525 62.7926C43.8067 62.2979 43.6872 62.4344 43.1414 61.9568C42.5955 61.4792 42.6978 61.3597 42.152 60.8821C41.6061 60.4045 41.7255 60.268 41.1796 59.7903C40.6338 59.3127 40.3608 59.6027 39.8149 59.1251C39.2691 58.6474 39.5249 58.3404 38.9961 57.8627C38.4673 57.3851 38.075 57.8115 37.5291 57.3339C36.9832 56.8563 36.9661 56.8733 36.4203 56.3957C35.8744 55.918 35.9938 55.7816 35.4479 55.2869C34.9021 54.7922 34.7656 54.9457 34.2197 54.4681C33.6738 53.9904 34.015 53.5981 33.4691 53.1204C32.9233 52.6428 32.6844 52.8987 32.1386 52.404C31.5927 51.9093 31.4733 52.0458 30.9274 51.5681C30.3815 51.0905 30.8933 50.4934 30.3474 50.0158C29.8015 49.5381 29.358 50.0328 28.8122 49.5552C28.2663 49.0775 28.5904 48.7023 28.0445 48.2076C27.4986 47.7129 27.601 47.6105 27.0551 47.1329C26.5092 46.6552 26.2875 46.8941 25.7416 46.4164C25.1957 45.9388 25.1446 45.9729 24.5987 45.4952C24.0528 45.0176 23.8652 45.2223 23.3193 44.7276C22.7734 44.2329 22.7734 44.25 22.2275 43.7723C21.6817 43.2947 22.0399 42.8853 21.494 42.4076C20.9481 41.93 21.0334 41.8447 20.4876 41.35C19.9417 40.8553 19.9076 40.9065 19.3617 40.4289C18.8158 39.9512 18.7646 40.0024 18.2188 39.5247C17.6729 39.0471 17.7923 38.8936 17.2464 38.4159C16.7006 37.9383 16.4617 38.1942 15.9158 37.7165C15.37 37.2389 15.08 37.546 14.5341 37.0683C13.9882 36.5907 14.0223 36.5395 13.4765 36.0618C12.9306 35.5842 13.1353 35.3283 12.5894 34.8507C12.0435 34.3731 12.1459 34.2536 11.6 33.7589C11.0541 33.2642 10.9689 33.3666 10.423 32.8719C9.87712 32.3772 10.0989 32.1213 9.55299 31.6437C9.00711 31.166 9.04124 31.1149 8.49536 30.6202C7.94949 30.1255 7.86419 30.2278 7.31832 29.7331C6.77244 29.2384 6.84067 29.1702 6.29479 28.6755C5.74892 28.1808 5.3054 28.6755 4.75953 28.1978C4.21365 27.7202 4.58895 27.2767 4.04307 26.782C3.4972 26.2873 3.32661 26.4749 2.78074 25.9802C2.23486 25.4855 2.37132 25.2126 1.70604 24.8885C0.836052 24.4791 0.153711 24.8203 0.136653 24.0867L0.000180864 24.1208Z"/>
</mask>
<path d="M0.000180864 24.1208C-0.0168777 23.4044 1.17722 23.8991 1.68898 23.4044C2.20074 22.9097 2.13251 22.8244 2.64427 22.3297C3.15603 21.835 3.13896 21.8179 3.66778 21.3232C4.1966 20.8285 4.1966 20.8456 4.70836 20.3509C5.22011 19.8562 5.23716 19.8733 5.76598 19.3956C6.2948 18.918 5.88541 18.4915 6.39716 17.9968C6.90892 17.5021 7.1989 17.8092 7.71066 17.3145C8.22241 16.8198 7.89831 16.4615 8.41007 15.9839C8.92182 15.5063 8.99005 15.5574 9.51886 15.0627C10.0477 14.568 10.1842 14.7045 10.6959 14.2098C11.2077 13.7151 11.1906 13.681 11.7024 13.1863C12.2141 12.6916 12.6065 13.101 13.1182 12.6063C13.63 12.1116 13.1865 11.6339 13.6982 11.1392C14.21 10.6445 14.3465 10.781 14.8753 10.2863C15.4041 9.79161 15.5405 9.94516 16.0523 9.45046C16.5641 8.95576 16.6152 8.98987 17.1441 8.51223C17.6729 8.03459 17.7752 8.13694 18.3041 7.64224C18.8329 7.14754 18.577 6.89167 19.1058 6.39697C19.6346 5.90227 19.3446 5.59521 19.8564 5.10051C20.3681 4.60582 20.4022 4.63994 20.9311 4.14524C21.4599 3.65054 21.5452 3.73582 22.074 3.24112C22.6028 2.74642 22.6199 2.76348 23.1487 2.26878C23.6775 1.77408 23.9504 2.04702 24.4622 1.55232C24.974 1.05763 24.6157 0.460583 25.2981 0.187646C25.9804 -0.0852919 26.1169 0.716458 26.8333 0.716458C27.5498 0.716458 27.5669 0 28.2833 0C28.9998 0 29.0168 0.597048 29.7333 0.597048C30.4498 0.597048 30.4668 0.0170492 31.2003 0.0170492C31.9339 0.0170492 31.9339 0.784693 32.6674 0.784693C33.4009 0.784693 33.4009 0.272931 34.1344 0.272931C34.8679 0.272931 34.8679 0.238819 35.6015 0.238819C36.335 0.238819 36.335 0.102347 37.0685 0.102347C37.802 0.102347 37.802 0.255868 38.5185 0.255868C39.2349 0.255868 39.252 0.187646 39.9685 0.187646C40.6849 0.187646 40.702 0.784693 41.4184 0.784693C42.1349 0.784693 42.152 0.307055 42.8684 0.307055C43.5849 0.307055 43.6019 0.528812 44.3184 0.528812C45.0349 0.528812 45.0519 0.136459 45.7854 0.136459C46.519 0.136459 46.519 0.767631 47.2525 0.767631C47.986 0.767631 47.986 0.221757 48.7195 0.221757C49.453 0.221757 49.453 0.562924 50.1866 0.562924C50.9201 0.562924 50.9201 0.136459 51.6536 0.136459C52.3871 0.136459 52.3871 0.631159 53.1206 0.631159C53.8542 0.631159 53.8542 0.579986 54.5877 0.579986C55.3212 0.579986 55.3212 0.255868 56.0547 0.255868C56.7882 0.255868 56.7882 0.801743 57.5218 0.801743C58.2553 0.801743 58.2553 0.801743 58.9888 0.801743C59.7223 0.801743 59.7223 0.272931 60.4558 0.272931C61.1893 0.272931 61.1893 0.0852851 61.9229 0.0852851C62.6564 0.0852851 62.6564 0.73352 63.3899 0.73352C64.1234 0.73352 64.1234 0.289993 64.8569 0.289993C65.5905 0.289993 65.5905 0.341167 66.324 0.341167C67.0575 0.341167 67.0575 0.545874 67.791 0.545874C68.5245 0.545874 68.5245 0.136459 69.258 0.136459C69.9916 0.136459 69.9916 0.545874 70.7251 0.545874C71.4586 0.545874 71.4586 0.272931 72.1921 0.272931C72.9257 0.272931 72.9257 0.545874 73.6592 0.545874C74.3927 0.545874 74.3927 0.39234 75.1262 0.39234C75.8597 0.39234 75.8597 0.682333 76.5933 0.682333C77.3268 0.682333 77.3268 0.0852851 78.0603 0.0852851C78.7938 0.0852851 78.7938 0.136459 79.5273 0.136459C80.2608 0.136459 80.2608 0.102347 80.9944 0.102347C81.7279 0.102347 81.7279 0.579986 82.4614 0.579986C83.1949 0.579986 83.1949 0.869979 83.9285 0.869979C84.662 0.869979 84.662 0.494701 85.3955 0.494701C86.129 0.494701 86.129 0.102347 86.8625 0.102347C87.596 0.102347 87.596 0.136459 88.3296 0.136459C89.0631 0.136459 89.0631 0.716458 89.8137 0.716458C90.5642 0.716458 90.4619 0.528805 91.1442 0.801743C91.8266 1.07468 91.8948 0.852931 92.4066 1.34763C92.9183 1.84233 92.5771 2.21761 93.0889 2.71231C93.6007 3.20701 94.0954 2.69526 94.6242 3.1729C95.153 3.65054 95.0165 3.787 95.5453 4.2817C96.0742 4.7764 95.733 5.11757 96.2618 5.59521C96.7906 6.07286 97.2853 5.5611 97.7971 6.03874C98.3088 6.51638 98.1383 6.70401 98.6671 7.19871C99.1959 7.69341 98.9912 7.89812 99.52 8.37576C100.049 8.8534 99.8612 9.05812 100.39 9.53576C100.919 10.0134 100.936 10.0134 101.465 10.5081C101.993 11.0028 102.232 10.7469 102.761 11.2245C103.29 11.7022 103.188 11.8216 103.699 12.3163C104.211 12.811 104.365 12.6575 104.876 13.1522C105.388 13.6469 105.32 13.7322 105.849 14.2269C106.378 14.7216 106.685 14.3804 107.213 14.8751C107.742 15.3698 107.282 15.8474 107.81 16.3421C108.339 16.8368 108.459 16.7003 108.988 17.195C109.516 17.6897 109.278 17.9286 109.806 18.4233C110.335 18.918 110.335 18.918 110.847 19.4127C111.359 19.9074 111.853 19.4127 112.365 19.8903C112.877 20.3679 112.655 20.6409 113.184 21.1356C113.713 21.6303 113.679 21.6644 114.19 22.1762C114.702 22.6879 115.06 22.3126 115.589 22.8244C116.118 23.3361 116.323 23.4044 116.306 24.1208C116.289 24.8373 115.76 24.5473 115.214 25.0249C114.668 25.5026 114.668 25.5026 114.122 25.9802C113.576 26.4579 113.73 26.6284 113.184 27.1061C112.638 27.5837 112.723 27.6861 112.195 28.1637C111.666 28.6414 111.376 28.3172 110.83 28.8119C110.284 29.3066 110.42 29.4431 109.875 29.9208C109.329 30.3984 109.09 30.1425 108.561 30.6202C108.032 31.0978 108.476 31.6266 107.947 32.1043C107.418 32.5819 106.855 31.9678 106.309 32.4625C105.763 32.9572 105.866 33.0595 105.32 33.5542C104.774 34.0489 105.115 34.4242 104.586 34.9189C104.058 35.4136 103.921 35.2601 103.375 35.7378C102.829 36.2154 102.863 36.2666 102.318 36.7442C101.772 37.2218 101.448 36.8636 100.902 37.3412C100.356 37.8189 100.714 38.2283 100.168 38.723C99.6224 39.2177 99.4518 39.013 98.9059 39.4906C98.36 39.9683 98.633 40.2924 98.0871 40.77C97.5412 41.2477 97.2341 40.9065 96.6883 41.3841C96.1424 41.8618 96.313 42.0494 95.7671 42.5441C95.2212 43.0388 95.2724 43.0729 94.7265 43.5506C94.1807 44.0282 94.2318 44.0964 93.686 44.5741C93.1401 45.0517 92.833 44.7105 92.2871 45.2052C91.7413 45.6999 91.7583 45.717 91.2125 46.1946C90.6666 46.6723 90.5813 46.587 90.0354 47.0817C89.4896 47.5764 89.8136 47.9346 89.2678 48.4123C88.7219 48.8899 88.6025 48.7534 88.0566 49.2481C87.5107 49.7428 87.4937 49.7087 86.9478 50.2034C86.402 50.6981 86.5896 50.9028 86.0437 51.3805C85.4978 51.8581 85.4808 51.8581 84.9349 52.3358C84.389 52.8134 84.3379 52.7622 83.792 53.2569C83.2461 53.7516 83.0243 53.4957 82.4785 53.9904C81.9326 54.4851 81.8302 54.3657 81.2844 54.8434C80.7385 55.321 81.0114 55.6451 80.4656 56.1228C79.9197 56.6004 79.9197 56.6174 79.3909 57.0951C78.862 57.5727 78.7597 57.4874 78.2309 57.9651C77.7021 58.4427 77.4803 58.2039 76.9344 58.6986C76.3885 59.1933 76.5591 59.3639 76.0133 59.8586C75.4674 60.3533 75.3309 60.1827 74.768 60.6603C74.205 61.138 74.5633 61.5474 74.0174 62.025C73.4715 62.5027 73.1133 62.1103 72.5674 62.588C72.0215 63.0656 72.3798 63.475 71.8168 63.9526C71.2539 64.4303 70.8786 64.0038 70.3328 64.4815C69.7869 64.9591 69.9745 65.1809 69.4286 65.6756C68.8828 66.1702 69.0363 66.3409 68.4904 66.8355C67.9445 67.3302 67.7399 67.1085 67.194 67.5861C66.6481 68.0638 66.4093 67.825 65.8634 68.3026C65.3175 68.7802 65.3516 68.8314 64.8058 69.3261C64.2599 69.8208 64.7205 70.3326 64.1576 70.8102C63.5946 71.2878 63.1852 70.8102 62.6393 71.3049C62.0935 71.7996 62.2299 71.9531 61.684 72.4478C61.1382 72.9425 61.1552 72.9766 60.6094 73.4543C60.0635 73.9319 59.927 73.7954 59.3641 74.2901C58.8011 74.7848 59.1594 75.4672 58.4259 75.4842C57.6923 75.5013 58.0847 74.7507 57.5388 74.2731C56.9929 73.7955 56.6347 74.2049 56.0888 73.7102C55.5429 73.2155 55.7647 72.9937 55.2188 72.499C54.673 72.0043 54.7924 71.8849 54.2465 71.4072C53.7006 70.9296 53.4959 71.1684 52.95 70.6737C52.4042 70.179 52.6942 69.872 52.1483 69.3943C51.6024 68.9167 51.5512 68.9849 51.0054 68.4902C50.4595 67.9955 50.4254 68.0638 49.8795 67.5691C49.3336 67.0744 49.4871 66.9209 48.9413 66.4432C48.3954 65.9656 47.8495 66.5797 47.3037 66.085C46.7578 65.5903 46.9625 65.3685 46.4166 64.8738C45.8707 64.3791 46.0925 64.1403 45.5466 63.6456C45.0007 63.1509 44.8984 63.2873 44.3525 62.7926C43.8067 62.2979 43.6872 62.4344 43.1414 61.9568C42.5955 61.4792 42.6978 61.3597 42.152 60.8821C41.6061 60.4045 41.7255 60.268 41.1796 59.7903C40.6338 59.3127 40.3608 59.6027 39.8149 59.1251C39.2691 58.6474 39.5249 58.3404 38.9961 57.8627C38.4673 57.3851 38.075 57.8115 37.5291 57.3339C36.9832 56.8563 36.9661 56.8733 36.4203 56.3957C35.8744 55.918 35.9938 55.7816 35.4479 55.2869C34.9021 54.7922 34.7656 54.9457 34.2197 54.4681C33.6738 53.9904 34.015 53.5981 33.4691 53.1204C32.9233 52.6428 32.6844 52.8987 32.1386 52.404C31.5927 51.9093 31.4733 52.0458 30.9274 51.5681C30.3815 51.0905 30.8933 50.4934 30.3474 50.0158C29.8015 49.5381 29.358 50.0328 28.8122 49.5552C28.2663 49.0775 28.5904 48.7023 28.0445 48.2076C27.4986 47.7129 27.601 47.6105 27.0551 47.1329C26.5092 46.6552 26.2875 46.8941 25.7416 46.4164C25.1957 45.9388 25.1446 45.9729 24.5987 45.4952C24.0528 45.0176 23.8652 45.2223 23.3193 44.7276C22.7734 44.2329 22.7734 44.25 22.2275 43.7723C21.6817 43.2947 22.0399 42.8853 21.494 42.4076C20.9481 41.93 21.0334 41.8447 20.4876 41.35C19.9417 40.8553 19.9076 40.9065 19.3617 40.4289C18.8158 39.9512 18.7646 40.0024 18.2188 39.5247C17.6729 39.0471 17.7923 38.8936 17.2464 38.4159C16.7006 37.9383 16.4617 38.1942 15.9158 37.7165C15.37 37.2389 15.08 37.546 14.5341 37.0683C13.9882 36.5907 14.0223 36.5395 13.4765 36.0618C12.9306 35.5842 13.1353 35.3283 12.5894 34.8507C12.0435 34.3731 12.1459 34.2536 11.6 33.7589C11.0541 33.2642 10.9689 33.3666 10.423 32.8719C9.87712 32.3772 10.0989 32.1213 9.55299 31.6437C9.00711 31.166 9.04124 31.1149 8.49536 30.6202C7.94949 30.1255 7.86419 30.2278 7.31832 29.7331C6.77244 29.2384 6.84067 29.1702 6.29479 28.6755C5.74892 28.1808 5.3054 28.6755 4.75953 28.1978C4.21365 27.7202 4.58895 27.2767 4.04307 26.782C3.4972 26.2873 3.32661 26.4749 2.78074 25.9802C2.23486 25.4855 2.37132 25.2126 1.70604 24.8885C0.836052 24.4791 0.153711 24.8203 0.136653 24.0867L0.000180864 24.1208Z" stroke="#0A1C4C" stroke-width="2" mask="url(#path-1-inside-1_294_7413)"/>
<path d="M111 24.3938C110.267 24.3938 110.267 24.3596 109.533 24.3596C108.8 24.3596 108.8 24.6838 108.066 24.6838C107.333 24.6838 107.333 24.1891 106.599 24.1891C105.866 24.1891 105.866 24.7179 105.132 24.7179C104.399 24.7179 104.399 24.4791 103.665 24.4791C102.932 24.4791 102.932 24.2232 102.198 24.2232C101.465 24.2232 101.465 24.462 100.731 24.462C99.9975 24.462 99.9975 24.7861 99.264 24.7861C98.5305 24.7861 98.5305 24.4279 97.797 24.4279C97.0634 24.4279 97.0635 24.5473 96.3299 24.5473C95.5964 24.5473 95.5964 24.7691 94.8629 24.7691C94.1294 24.7691 94.1294 24.2403 93.3959 24.2403C92.6623 24.2403 92.6623 24.2573 91.9288 24.2573C91.1953 24.2573 91.1953 24.4449 90.4618 24.4449C89.7283 24.4449 89.7283 24.1891 88.9947 24.1891C88.2612 24.1891 88.2612 24.2914 87.5277 24.2914C86.7942 24.2914 86.7942 24.2403 86.0607 24.2403C85.3271 24.2403 85.3271 24.2232 84.5936 24.2232C83.8601 24.2232 83.8601 24.1891 83.1436 24.1891C82.4272 24.1891 82.4101 24.5132 81.6937 24.5132C80.9772 24.5132 80.9601 24.4108 80.2437 24.4108C79.5272 24.4108 79.5102 24.7861 78.7937 24.7861C78.0772 24.7861 78.0602 24.9226 77.3437 24.9226C76.6273 24.9226 76.6102 24.7008 75.8937 24.7008C75.1773 24.7008 75.1602 24.3938 74.4438 24.3938C73.7273 24.3938 73.7102 24.4961 72.9938 24.4961C72.2773 24.4961 72.2603 24.752 71.5438 24.752C70.8273 24.752 70.8103 24.7179 70.0938 24.7179C69.3774 24.7179 69.3603 24.8714 68.6438 24.8714C67.9274 24.8714 67.9103 24.3426 67.1768 24.3426C66.4433 24.3426 66.4433 24.9567 65.7098 24.9567C64.9762 24.9567 64.9762 24.7179 64.2427 24.7179C63.5092 24.7179 63.5092 24.5473 62.7757 24.5473C62.0422 24.5473 62.0422 24.155 61.3086 24.155C60.5751 24.155 60.5751 24.5644 59.8416 24.5644C59.1081 24.5644 59.1081 24.6838 58.3746 24.6838C57.6411 24.6838 57.6411 24.2744 56.9075 24.2744C56.174 24.2744 56.174 24.7349 55.4405 24.7349C54.707 24.7349 54.707 24.8373 53.9735 24.8373C53.2399 24.8373 53.2399 24.8885 52.5064 24.8885C51.7729 24.8885 51.7729 24.1208 51.0394 24.1208C50.3059 24.1208 50.3059 24.2403 49.5723 24.2403C48.8388 24.2403 48.8388 24.1891 48.1053 24.1891C47.3718 24.1891 47.3718 24.3256 46.6383 24.3256C45.9047 24.3256 45.9047 24.5132 45.1712 24.5132C44.4377 24.5132 44.4377 24.155 43.7042 24.155C42.9707 24.155 42.9707 24.4791 42.2371 24.4791C41.5036 24.4791 41.5036 24.9055 40.7701 24.9055C40.0366 24.9055 40.0366 24.2403 39.3031 24.2403C38.5695 24.2403 38.5695 24.4961 37.836 24.4961C37.1025 24.4961 37.1025 24.3085 36.369 24.3085C35.6355 24.3085 35.6355 24.7349 34.902 24.7349C34.1684 24.7349 34.1684 24.2573 33.4349 24.2573C32.7014 24.2573 32.7014 24.1379 31.9679 24.1379C31.2344 24.1379 31.2344 24.0867 30.5008 24.0867C29.7673 24.0867 29.7673 24.3596 29.0338 24.3596C28.3003 24.3596 28.3003 24.3596 27.5668 24.3596C26.8332 24.3596 26.8332 24.3426 26.0997 24.3426C25.3662 24.3426 25.3662 24.155 24.6327 24.155C23.8992 24.155 23.8992 24.4108 23.1656 24.4108C22.4321 24.4108 22.4321 24.4791 21.6986 24.4791C20.9651 24.4791 20.9651 24.6155 20.2316 24.6155C19.4981 24.6155 19.4981 24.172 18.7645 24.172C18.031 24.172 18.031 24.6155 17.2975 24.6155C16.564 24.6155 16.564 24.6155 15.8305 24.6155C15.0969 24.6155 15.0969 24.0867 14.3634 24.0867C13.6299 24.0867 13.6299 24.7008 12.8964 24.7008C12.1629 24.7008 12.1629 24.1379 11.4293 24.1379C10.6958 24.1379 10.6958 24.155 9.9623 24.155C9.22878 24.155 9.22879 24.2573 8.47821 24.2573C7.72764 24.2573 7.74468 24.1891 6.9941 24.1891C6.24352 24.1891 6.26059 24.6838 5.51001 24.6838" stroke="#091C4C" stroke-miterlimit="10" stroke-linecap="round"/>
<path d="M89.7454 3.00238C89.5919 3.70178 89.4554 3.66767 89.3019 4.38413C89.1484 5.1006 89.8819 5.25412 89.7284 5.95352C89.5748 6.65292 89.0119 6.53352 88.8584 7.24998C88.7049 7.96644 88.5684 7.93232 88.4149 8.63172C88.2613 9.33112 88.9096 9.48464 88.756 10.184C88.6025 10.8834 88.2272 10.8152 88.0737 11.5146C87.9202 12.214 88.2102 12.2823 88.0566 12.9987C87.9031 13.7152 87.6643 13.6469 87.5108 14.3634C87.3572 15.0799 86.999 14.9946 86.8455 15.694C86.6919 16.3934 87.1525 16.4957 86.999 17.2122C86.8455 17.9287 86.5896 17.8775 86.4361 18.5769C86.2826 19.2763 86.1631 19.2592 86.0096 19.9757C85.8561 20.6921 86.0778 20.7433 85.9243 21.4427" stroke="#091C4C" stroke-miterlimit="10" stroke-linecap="round"/>
<path d="M25.6904 3.01939C25.8781 3.75291 26.1681 3.66762 26.3557 4.40114C26.5434 5.13465 26.1681 5.21995 26.3557 5.95347C26.5434 6.68699 26.7481 6.63582 26.9357 7.35228C27.1233 8.06874 27.4474 8.0005 27.618 8.73402C27.7886 9.46754 27.6863 9.4846 27.8739 10.2181C28.0616 10.9516 28.2833 10.9005 28.4539 11.6169C28.6245 12.3334 28.6927 12.3334 28.8804 13.0669C29.068 13.8004 28.9827 13.8175 29.1704 14.551C29.358 15.2845 28.9827 15.3698 29.1704 16.1033C29.358 16.8368 29.7333 16.7345 29.9039 17.468C30.0745 18.2015 29.8015 18.2698 29.9892 19.0033C30.1768 19.7368 29.8186 19.8221 30.0063 20.5556C30.1939 21.2891 30.2621 21.2721 30.4498 22.0056C30.6374 22.7391 30.5862 22.7562 30.7568 23.4897" stroke="#091C4C" stroke-miterlimit="10" stroke-linecap="round"/>
<path d="M86.2483 25.5879C85.8901 26.2191 85.2589 25.8779 84.9007 26.5091C84.5425 27.1402 84.9348 27.362 84.5766 28.0102C84.2184 28.6584 84.2696 28.6755 83.9284 29.3237C83.5872 29.972 83.4507 29.8867 83.0925 30.5349C82.7343 31.1831 82.5808 31.0808 82.2225 31.729C81.8643 32.3772 82.069 32.4796 81.7108 33.1278C81.3525 33.776 81.1819 33.6737 80.8237 34.3048C80.4655 34.936 80.329 34.8678 79.9708 35.4989C79.6125 36.1301 80.1414 36.4372 79.7831 37.0683C79.4249 37.6995 79.3396 37.6654 78.9984 38.2966C78.6573 38.9277 78.572 38.8936 78.2137 39.5418C77.8555 40.1901 77.719 40.1048 77.3608 40.7359C77.0026 41.3671 76.9344 41.333 76.5761 41.9812C76.2179 42.6294 76.2008 42.6124 75.8426 43.2435C75.4844 43.8747 75.8426 44.0965 75.5014 44.7276C75.1603 45.3588 74.9726 45.2735 74.6144 45.9047C74.2561 46.5358 74.205 46.5188 73.8467 47.1499C73.4885 47.7811 73.2156 47.6276 72.8573 48.2588C72.4991 48.8899 72.6185 48.9582 72.2603 49.5893C71.9021 50.2205 72.0897 50.3399 71.7315 50.9711C71.3732 51.6022 71.3562 51.6023 70.998 52.2334C70.6397 52.8646 70.9127 53.0181 70.5545 53.6663C70.1962 54.3146 69.9745 54.1781 69.6162 54.8093C69.258 55.4404 69.2239 55.4404 68.8827 56.0716C68.5415 56.7028 68.1492 56.4981 67.7909 57.1463C67.4327 57.7945 67.5692 57.8627 67.211 58.511C66.8527 59.1592 67.3986 59.4492 67.0404 60.0974C66.6821 60.7457 66.1874 60.4557 65.8292 61.1039C65.471 61.7521 65.3686 61.6839 65.0104 62.3321C64.6522 62.9803 64.9592 63.1338 64.601 63.7821C64.2428 64.4303 64.3792 64.4985 64.021 65.1297C63.6628 65.7609 63.4069 65.6415 63.0487 66.2726C62.6904 66.9038 62.7246 66.9379 62.3663 67.5861C62.0081 68.2344 62.1275 68.3026 61.7693 68.9508C61.411 69.599 60.9846 69.3602 60.6263 70.0085" stroke="#091C4C" stroke-miterlimit="10" stroke-linecap="round"/>
<path d="M32.2579 26.5944C32.5991 27.2426 32.1897 27.4643 32.5309 28.1126C32.872 28.7608 33.2132 28.5731 33.5544 29.2384C33.8956 29.9037 34.0662 29.8014 34.4073 30.4496C34.7485 31.0978 34.1003 31.439 34.4414 32.0872C34.7826 32.7354 35.0214 32.616 35.3626 33.2642C35.7038 33.9125 35.9597 33.776 36.3179 34.4242C36.6761 35.0725 36.1644 35.3454 36.5055 35.9936C36.8467 36.6419 36.8296 36.6589 37.1708 37.3072C37.512 37.9554 37.9043 37.7507 38.2455 38.4159C38.5867 39.0812 38.2796 39.2348 38.6379 39.883C38.9961 40.5312 39.559 40.2242 39.9002 40.8894C40.2414 41.5547 39.6443 41.8618 40.0025 42.51C40.3608 43.1582 40.7872 42.9194 41.1455 43.5677C41.5037 44.2159 41.2308 44.3523 41.5719 45.0176C41.9131 45.6829 42.1349 45.5635 42.476 46.2117C42.8172 46.86 42.8172 46.8599 43.1754 47.5252C43.5337 48.1905 43.2096 48.344 43.5507 48.9923C43.8919 49.6405 44.216 49.4699 44.5742 50.1181C44.9325 50.7664 45.1372 50.647 45.4954 51.2952C45.8536 51.9434 45.4954 52.1311 45.8536 52.7793C46.2119 53.4275 46.5019 53.274 46.843 53.9052C47.1842 54.5363 46.5531 54.8945 46.9113 55.5428C47.2695 56.191 47.5595 56.0375 47.9177 56.6857C48.276 57.3339 48.2418 57.351 48.6001 57.9992C48.9583 58.6474 48.7877 58.7327 49.1289 59.398C49.47 60.0633 49.8283 59.8586 50.1695 60.5068C50.5106 61.155 50.1012 61.3768 50.4594 62.025C50.8177 62.6733 51.2271 62.4515 51.5683 63.1168C51.9094 63.7821 51.8753 63.7821 52.2336 64.4473C52.5918 65.1126 52.1824 65.3173 52.5235 65.9656C52.8647 66.6138 53.0865 66.5115 53.4447 67.1597C53.8029 67.8079 53.9906 67.7055 54.3318 68.3708C54.6729 69.0361 54.4 69.1726 54.7412 69.8379C55.0823 70.5032 55.1335 70.469 55.4917 71.1173C55.85 71.7655 55.6282 71.8849 55.9694 72.5502C56.3106 73.2155 56.737 72.9937 57.0782 73.6419C57.4194 74.2902 57.01 74.529 57.3511 75.1772C57.6923 75.8254 58.3576 75.4843 58.7158 76.1495" stroke="#091C4C" stroke-miterlimit="10" stroke-linecap="round"/>
<path d="M33.4521 20.3339C33.998 19.8904 33.708 19.5322 34.271 19.0886C34.8339 18.6451 34.7145 18.5257 35.2774 18.0822C35.8403 17.6387 35.8745 17.6898 36.4203 17.2463C36.9662 16.8028 37.1368 17.0075 37.6997 16.5469C38.2627 16.0863 38.3479 16.2057 38.8938 15.7622C39.4397 15.3187 39.2691 15.0969 39.815 14.6534C40.3609 14.2099 40.3438 14.1758 40.8897 13.7152C41.4356 13.2546 41.7426 13.647 42.3055 13.1864C42.8685 12.7258 42.8855 12.7769 43.4485 12.3164C44.0114 11.8558 44.0114 11.8728 44.5573 11.4123C45.1032 10.9517 45.1032 10.9517 45.649 10.4911C46.1949 10.0305 45.939 9.72347 46.502 9.26289C47.0649 8.80231 47.3037 9.10936 47.8496 8.64878C48.3954 8.1882 48.276 8.03467 48.839 7.59114C49.4019 7.14762 49.3678 7.1135 49.9307 6.66998C50.4937 6.22646 50.289 5.97058 50.8519 5.52706C51.4148 5.08353 51.6878 5.40764 52.2336 4.96412C52.7795 4.5206 52.5066 4.16237 53.0695 3.70179C53.6325 3.24121 53.803 3.46296 54.366 3.00238" stroke="#091C4C" stroke-miterlimit="10" stroke-linecap="round"/>
<path d="M85.9754 21.4768C85.4125 21.0333 85.6684 20.7091 85.1055 20.2827C84.5425 19.8562 84.2525 20.2315 83.6896 19.788C83.1267 19.3445 83.3996 19.0033 82.8537 18.5598C82.3078 18.1162 82.0008 18.5086 81.4378 18.0651C80.8749 17.6216 80.892 17.6045 80.3291 17.161C79.7661 16.7174 79.732 16.7516 79.1691 16.3251C78.6061 15.8986 78.7767 15.6769 78.1967 15.2333C77.6167 14.7898 77.5997 14.841 77.0367 14.4145C76.4738 13.9881 76.252 14.2781 75.6891 13.8345C75.1262 13.391 75.075 13.4593 74.5121 13.0157C73.9491 12.5722 74.0344 12.4698 73.4715 12.0263C72.9086 11.5828 73.1644 11.2587 72.6015 10.8152C72.0386 10.3717 71.6462 10.8664 71.0833 10.4399C70.5204 10.0134 71.0321 9.34812 70.4521 8.9046C69.8721 8.46108 69.4116 9.07519 68.8486 8.63167C68.2857 8.18815 68.371 8.06873 67.8081 7.64227C67.2451 7.21581 67.4498 6.94287 66.8698 6.51641C66.2898 6.08995 66.2045 6.20935 65.6416 5.76583C65.0787 5.3223 65.0957 5.28819 64.5328 4.86172C63.9698 4.43526 63.8846 4.52055 63.3216 4.07703C62.7587 3.63351 62.8952 3.46292 62.3152 3.01939" stroke="#091C4C" stroke-miterlimit="10" stroke-linecap="round"/>
</g>
</svg>
