<svg width="93" height="86" viewBox="0 0 93 86" fill="none" xmlns="http://www.w3.org/2000/svg">
<g opacity="0.3">
<mask id="path-1-inside-1_294_7402" fill="white">
<path d="M10.8541 9.35992C11.2457 8.9707 11.5627 8.48878 11.9729 8.15516C12.3832 7.82154 13.2223 8.04395 13.6699 7.7474C14.1174 7.45085 14.6023 7.28406 15.0871 7.04311C15.5719 6.80216 15.9449 6.39438 16.4484 6.20904C16.9519 6.02369 17.5486 6.20905 18.0521 6.07931C18.5556 5.94957 18.9845 5.35645 19.5066 5.28231C20.0288 5.20817 20.5695 5.17113 21.1103 5.13406C21.6511 5.09699 22.1732 5.13406 22.714 5.13406C23.2548 5.13406 23.7583 5.41207 24.2991 5.44914C24.8399 5.48621 25.4366 4.87457 25.9587 4.9487C26.4809 5.02284 27.003 5.28232 27.5251 5.37499C28.0473 5.46766 28.5321 5.83835 29.0542 5.94955C29.5764 6.06076 30.229 5.72715 30.7512 5.87543C31.2733 6.0237 31.8141 6.19051 32.2989 6.33879C32.7838 6.48707 33.25 6.96897 33.7348 7.15431C34.257 7.33966 34.7232 7.63621 35.208 7.82156C35.7301 8.02543 36.1031 8.4888 36.5693 8.69268C37.0914 8.93363 37.5203 9.26723 37.9678 9.48965C38.5086 9.74913 39.2732 9.47112 39.6648 9.675C40.5412 10.1384 40.2242 10.9724 40.9888 10.8056C41.7533 10.6388 41.2499 10.1013 41.9212 9.34137C42.2195 9.00775 42.3874 8.39613 42.7976 7.96983C43.1333 7.61768 43.5435 7.24698 43.9724 6.85775C44.3454 6.5056 44.9794 6.41294 45.4083 6.06078C45.7999 5.72716 46.3034 5.50473 46.7323 5.17111C47.1425 4.85602 47.6274 4.61507 48.0749 4.29999C48.5224 3.9849 48.8768 3.61423 49.343 3.33621C49.8091 3.0582 50.2753 2.83576 50.7415 2.59482C51.2077 2.35387 51.5807 1.87198 52.0655 1.64957C52.5504 1.42715 53.203 1.6681 53.7252 1.50129C54.2473 1.33448 54.7322 1.26033 55.2543 1.11205C55.7764 0.963776 56.1867 0.463356 56.7274 0.370684C57.2682 0.278012 57.809 0.556032 58.3498 0.518963C58.8906 0.481894 59.3941 0 59.9349 0C60.4756 0 61.0164 0.0185401 61.5572 0.0926781C62.098 0.166816 62.5828 0.444833 63.1236 0.55604C63.6644 0.667247 64.1865 0.648712 64.7273 0.815522C65.2681 0.982332 65.5851 1.55689 66.0886 1.76077C66.5921 1.96465 67.2261 1.79785 67.711 2.05733C68.1958 2.31681 68.4569 2.87284 68.9044 3.15086C69.3706 3.44741 70.0419 3.39181 70.4335 3.7069C70.8251 4.02198 70.9184 4.74483 71.2913 5.09698C71.6643 5.44914 72.0745 5.78276 72.4102 6.17199C72.7458 6.56121 73.5663 6.65387 73.8647 7.08016C74.1631 7.50645 74.0139 8.22932 74.2563 8.69268C74.4987 9.15604 74.4241 9.74915 74.6293 10.231C74.8344 10.7129 75.0582 11.1577 75.226 11.6582C75.3938 12.1586 75.3752 12.6776 75.4871 13.1965C75.5989 13.7155 75.9532 14.1603 76.0278 14.6793C76.1024 15.1983 76.2702 15.6987 76.3075 16.2177C76.3448 16.7366 76.177 17.2741 76.1957 17.7931C76.2143 18.3121 76.9043 18.8496 76.8856 19.3685C76.867 19.8875 76.2889 20.425 76.2703 20.9254C76.233 21.4629 76.7365 22.0375 76.6992 22.5379C76.6432 23.094 75.9905 23.5388 75.9159 24.0392C75.8414 24.5953 75.8041 25.1328 75.7108 25.5961C75.5989 26.1892 75.3379 26.6526 75.226 27.0974C75.0022 28.0427 75.1141 27.8017 75.5057 28.469C75.8973 29.1362 75.5803 29.2289 76.5127 29.5254C76.9416 29.6552 77.5942 29.3771 78.1537 29.581C78.6012 29.7478 79.2352 29.6181 79.7387 29.8405C80.1863 30.0444 80.5965 30.4522 81.0814 30.6931C81.5289 30.9155 81.79 31.5457 82.2748 31.8052C82.7224 32.0461 83.1513 32.3427 83.5988 32.6207C84.0463 32.8987 84.5871 32.9914 85.016 33.2879C85.4449 33.5845 86.0417 33.6586 86.4706 33.9737C86.8995 34.2888 86.8622 35.1043 87.2538 35.475C87.6454 35.8457 88.5032 35.6974 88.8575 36.0681C89.2118 36.4388 89.3982 36.9948 89.7153 37.4211C90.0323 37.8474 89.9763 38.4961 90.256 38.9409C90.5358 39.3858 91.4681 39.4599 91.7106 39.9233C91.953 40.3866 91.7106 41.0724 91.9157 41.5543C92.1208 42.0362 92.4565 42.481 92.587 42.9815C92.7175 43.4819 92.5311 44.0565 92.587 44.5754C92.6429 45.0944 92.643 45.5948 92.6616 46.1138C92.6802 46.6327 93.0346 47.1517 92.9973 47.6892C92.96 48.1897 92.5497 48.6716 92.4565 49.2091C92.3632 49.7466 92.7175 50.3767 92.587 50.8772C92.4565 51.4147 91.7852 51.7668 91.5987 52.2672C91.4122 52.7862 91.0206 53.1569 90.7782 53.6203C90.5358 54.1207 90.9647 54.9547 90.6849 55.3996C90.4052 55.8444 89.4542 55.8259 89.1185 56.2336C88.7829 56.6414 88.6337 57.1974 88.2421 57.5681C87.8505 57.9388 87.5708 58.4207 87.1419 58.7358C86.713 59.0509 86.3587 59.4957 85.8925 59.7737C85.4263 60.0517 84.7736 59.9591 84.2888 60.2C83.8039 60.4409 83.5056 61.0896 83.0207 61.2935C82.5359 61.4974 81.79 61.0341 81.2865 61.2009C80.783 61.3677 80.3914 61.9608 79.8693 62.0905C79.3471 62.2203 78.8436 62.4797 78.3215 62.5724C77.7994 62.6651 77.184 62.2573 76.6619 62.3315C76.1211 62.4056 75.5803 62.3685 75.0768 62.4056C74.5174 62.4427 74.0139 63.184 73.5104 63.2026C72.9323 63.2026 72.3729 62.7392 71.888 62.7392C71.2727 62.7392 70.7319 62.9987 70.2657 62.9802C69.2774 62.9246 69.2774 62.1461 68.7366 62.7392C68.1958 63.3323 68.662 63.2953 68.7366 64.2961C68.7739 64.7595 69.1655 65.2785 69.1655 65.8901C69.1655 66.3905 69.1655 66.928 69.1655 67.5026C69.1468 68.003 68.9604 68.5405 68.8858 69.0966C68.8298 69.6155 68.9231 70.1901 68.8298 70.7276C68.7366 71.2466 68.289 71.7099 68.1398 72.2474C67.9907 72.7849 68.0093 73.3224 67.8228 73.8414C67.6364 74.3603 67.5804 74.9164 67.3567 75.4168C67.1329 75.9173 66.4802 76.1953 66.2191 76.6586C65.9581 77.122 65.4359 77.4 65.1189 77.8448C64.8019 78.2897 65.1562 79.2164 64.8019 79.6427C64.4476 80.069 64.0374 80.4397 63.6458 80.8289C63.2542 81.2181 62.6947 81.3849 62.2472 81.7371C61.7996 82.0892 61.2588 82.2004 60.7926 82.497C60.3265 82.7935 59.6924 82.6638 59.1889 82.9233C58.7227 83.1642 58.2938 83.4608 57.7904 83.6832C57.2869 83.9056 56.9512 84.4802 56.4104 84.647C55.9069 84.8138 55.4035 85.0548 54.8627 85.203C54.3219 85.3513 53.8184 85.5181 53.3149 85.6108C52.7741 85.7035 52.1961 85.3513 51.6926 85.4069C51.1518 85.444 50.6297 86 50.1262 86C49.6227 86 49.0446 85.7961 48.5225 85.7405C48.0003 85.6849 47.4222 85.7405 46.9188 85.6293C46.4153 85.5181 45.9304 85.1474 45.4269 84.9806C44.9234 84.8138 44.5691 84.2763 44.0843 84.0724C43.5995 83.8685 43.2265 83.4978 42.7603 83.2569C42.2941 83.016 41.6042 83.1457 41.1753 82.8677C40.7464 82.5897 40.1869 82.4228 39.7767 82.0892C39.3664 81.7556 39.2732 81.0698 38.9002 80.7177C38.5273 80.3655 37.8746 80.2543 37.5203 79.8651C37.166 79.4759 36.9236 78.9754 36.5879 78.5862C36.2523 78.197 36.1217 77.6224 35.8234 77.1961C35.525 76.7698 34.7791 76.6216 34.4994 76.1953C34.201 75.7504 34.5553 74.9164 34.2942 74.4901C34.0145 74.0082 33.1567 73.897 32.933 73.4521C32.6719 72.9517 32.7838 72.3216 32.5787 71.8767C32.3362 71.3392 31.5717 71.0797 31.4039 70.672C31.0309 69.7823 31.8328 69.7082 31.1428 69.356C30.4528 69.0039 30.7885 69.4487 29.8374 69.7082C29.4085 69.8379 28.8864 69.9491 28.3083 70.0974C27.8421 70.2086 27.3387 70.431 26.7792 70.5422C26.2944 70.6535 25.7163 70.4681 25.1755 70.5608C24.672 70.6534 24.1499 70.6905 23.6091 70.7646C23.1056 70.8388 22.6208 71.3207 22.08 71.3763C21.5392 71.4319 20.9798 70.7276 20.439 70.7646C19.8982 70.8017 19.4134 71.5246 18.8912 71.5246C18.3691 71.5246 17.8283 71.2651 17.3062 71.2466C16.784 71.228 16.2246 71.4504 15.7025 71.3948C15.1803 71.3392 14.6955 70.8759 14.1734 70.8017C13.6512 70.7276 13.1477 70.5423 12.6443 70.431C12.1408 70.3198 11.5067 70.6164 11.0033 70.4496C10.4998 70.2828 10.2201 69.5043 9.73521 69.3004C9.25037 69.0966 8.41123 69.6711 7.94503 69.4302C7.47884 69.1892 7.10588 68.7073 6.65834 68.4108C6.21079 68.1142 6.1735 67.3172 5.7819 66.9836C5.3903 66.65 4.5325 66.7983 4.15955 66.4091C3.78659 66.0198 3.43229 65.6121 3.11527 65.1858C2.79826 64.7595 2.9288 64.0552 2.64908 63.5918C2.36937 63.1285 2.25748 62.628 2.0337 62.1646C1.80993 61.7013 1.30644 61.3306 1.13861 60.8487C0.970785 60.3668 0.784311 59.8479 0.653777 59.3474C0.523243 58.847 0.243523 58.3466 0.168932 57.8276C0.0943416 57.3086 0.0197504 56.7526 0.00110273 56.2336C-0.017545 55.7147 0.206233 55.1771 0.22488 54.6582C0.243528 54.1392 0.168934 53.5832 0.243525 53.0828C0.318116 52.5823 0.243524 51.9892 0.374058 51.4888C0.504592 50.9884 1.13861 50.5991 1.30644 50.1172C1.47427 49.6353 1.30645 49.0052 1.49293 48.5233C1.6794 48.0414 2.25748 47.7077 2.48125 47.2444C2.70502 46.781 2.87285 46.2806 3.13392 45.8172C3.39499 45.3539 3.93577 45.0759 4.21549 44.631C4.49521 44.1862 4.58845 43.6302 4.88681 43.2039C5.18517 42.7776 5.33435 42.2216 5.65136 41.8138C5.98702 41.3875 6.41592 41.0724 6.75158 40.6832C7.10589 40.2569 7.19912 39.6453 7.53478 39.2746C7.90773 38.8483 8.46717 38.6444 8.80283 38.2923C9.21308 37.866 9.26902 37.1431 9.58603 36.8465C10.2946 36.1793 10.91 36.8465 11.0778 36.1052C11.2457 35.3638 10.4065 35.716 10.0336 34.8078C9.86575 34.4 10.1455 33.7327 9.94034 33.1767C9.77251 32.7319 9.71656 32.1944 9.53009 31.6754C9.3809 31.2121 8.89607 30.8228 8.74689 30.3039C8.5977 29.822 8.39257 29.3401 8.26204 28.8211C8.13151 28.3392 8.26204 27.7647 8.13151 27.2457C8.00097 26.7267 7.96368 26.2263 7.87044 25.7073C7.7772 25.1884 7.98233 24.6509 7.90774 24.1319C7.83315 23.6129 7.31101 23.1681 7.25507 22.6491C7.19913 22.1302 7.60937 21.5927 7.59072 21.0737C7.57207 20.5547 7.3856 20.0543 7.3856 19.5353C7.3856 19.0164 6.86347 18.4418 6.91941 17.9228C6.97535 17.4039 7.49749 16.9405 7.60937 16.4216C7.72126 15.9026 7.68396 15.3651 7.83314 14.8647C7.98233 14.3642 8.03827 13.8082 8.22474 13.3263C8.41122 12.8444 9.13848 12.622 9.39955 12.1771C9.66062 11.7323 9.8098 11.2319 10.1268 10.8241C10.4438 10.4164 10.4811 9.76767 10.8541 9.37844V9.35992ZM40.1869 30.9897C39.6648 31.1935 39.5343 31.5457 39.2918 32.0832C39.0681 32.5466 38.3408 32.9729 38.3594 33.566C38.3781 34.0849 38.434 34.7707 38.6578 35.3267C38.8816 35.8828 39.4224 36.3091 39.7767 36.7168C40.1869 37.1802 40.5599 37.866 41.0447 38.0513C41.6042 38.2737 42.3314 37.8474 42.8536 37.6435C43.3757 37.4397 43.7859 37.0504 44.0284 36.5129C44.2521 36.0496 44.4013 35.475 44.364 34.8819C44.3454 34.3629 44.4573 33.6957 44.2521 33.1396C44.047 32.5836 43.1706 32.4539 42.8349 32.0461C42.4247 31.5828 42.1636 31.175 41.6974 30.9897C41.138 30.7672 40.7277 30.7858 40.2056 30.9897H40.1869ZM57.809 42.4254C57.8463 41.8694 57.5666 41.6099 57.1936 41.1466C56.858 40.7573 56.802 39.9233 56.2426 39.6823C55.7578 39.4785 55.1051 39.2375 54.5084 39.2004C53.9116 39.1634 53.2963 39.4599 52.7741 39.6082C52.1961 39.775 51.3942 39.8306 51.0212 40.1642C50.5924 40.572 50.6483 41.406 50.6296 41.9621C50.611 42.5181 50.7788 43.0556 51.1518 43.5004C51.4874 43.8897 51.935 44.2789 52.4944 44.5013C52.9793 44.7052 53.5387 45.0944 54.1354 45.1315C54.7321 45.1685 55.217 44.4642 55.7391 44.316C56.3172 44.1492 56.802 44.0935 57.1936 43.7414C57.6225 43.3336 57.7904 42.9629 57.8277 42.4069L57.809 42.4254ZM42.2382 45.7617C41.8279 45.391 41.455 45.428 40.8582 45.428C40.3361 45.428 39.6461 44.9647 39.1054 45.2427C38.6392 45.4836 38.0424 45.8358 37.6508 46.2806C37.2592 46.7254 37.0914 47.3927 36.8863 47.8746C36.6439 48.4306 36.1777 49.0608 36.215 49.5797C36.2523 50.1729 36.9609 50.6547 37.3711 51.0254C37.7814 51.3961 38.3035 51.6 38.9002 51.5815C39.4224 51.5815 40.0004 51.4703 40.5412 51.1737C41.0074 50.9328 41.6601 50.7474 42.0704 50.3026C42.4806 49.8578 42.2382 49.0422 42.4433 48.5603C42.6857 48.0043 42.9468 47.5965 42.9095 47.0776C42.8722 46.4845 42.6671 46.1138 42.2568 45.7431L42.2382 45.7617Z"/>
</mask>
<path d="M10.8541 9.35992C11.2457 8.9707 11.5627 8.48878 11.9729 8.15516C12.3832 7.82154 13.2223 8.04395 13.6699 7.7474C14.1174 7.45085 14.6023 7.28406 15.0871 7.04311C15.5719 6.80216 15.9449 6.39438 16.4484 6.20904C16.9519 6.02369 17.5486 6.20905 18.0521 6.07931C18.5556 5.94957 18.9845 5.35645 19.5066 5.28231C20.0288 5.20817 20.5695 5.17113 21.1103 5.13406C21.6511 5.09699 22.1732 5.13406 22.714 5.13406C23.2548 5.13406 23.7583 5.41207 24.2991 5.44914C24.8399 5.48621 25.4366 4.87457 25.9587 4.9487C26.4809 5.02284 27.003 5.28232 27.5251 5.37499C28.0473 5.46766 28.5321 5.83835 29.0542 5.94955C29.5764 6.06076 30.229 5.72715 30.7512 5.87543C31.2733 6.0237 31.8141 6.19051 32.2989 6.33879C32.7838 6.48707 33.25 6.96897 33.7348 7.15431C34.257 7.33966 34.7232 7.63621 35.208 7.82156C35.7301 8.02543 36.1031 8.4888 36.5693 8.69268C37.0914 8.93363 37.5203 9.26723 37.9678 9.48965C38.5086 9.74913 39.2732 9.47112 39.6648 9.675C40.5412 10.1384 40.2242 10.9724 40.9888 10.8056C41.7533 10.6388 41.2499 10.1013 41.9212 9.34137C42.2195 9.00775 42.3874 8.39613 42.7976 7.96983C43.1333 7.61768 43.5435 7.24698 43.9724 6.85775C44.3454 6.5056 44.9794 6.41294 45.4083 6.06078C45.7999 5.72716 46.3034 5.50473 46.7323 5.17111C47.1425 4.85602 47.6274 4.61507 48.0749 4.29999C48.5224 3.9849 48.8768 3.61423 49.343 3.33621C49.8091 3.0582 50.2753 2.83576 50.7415 2.59482C51.2077 2.35387 51.5807 1.87198 52.0655 1.64957C52.5504 1.42715 53.203 1.6681 53.7252 1.50129C54.2473 1.33448 54.7322 1.26033 55.2543 1.11205C55.7764 0.963776 56.1867 0.463356 56.7274 0.370684C57.2682 0.278012 57.809 0.556032 58.3498 0.518963C58.8906 0.481894 59.3941 0 59.9349 0C60.4756 0 61.0164 0.0185401 61.5572 0.0926781C62.098 0.166816 62.5828 0.444833 63.1236 0.55604C63.6644 0.667247 64.1865 0.648712 64.7273 0.815522C65.2681 0.982332 65.5851 1.55689 66.0886 1.76077C66.5921 1.96465 67.2261 1.79785 67.711 2.05733C68.1958 2.31681 68.4569 2.87284 68.9044 3.15086C69.3706 3.44741 70.0419 3.39181 70.4335 3.7069C70.8251 4.02198 70.9184 4.74483 71.2913 5.09698C71.6643 5.44914 72.0745 5.78276 72.4102 6.17199C72.7458 6.56121 73.5663 6.65387 73.8647 7.08016C74.1631 7.50645 74.0139 8.22932 74.2563 8.69268C74.4987 9.15604 74.4241 9.74915 74.6293 10.231C74.8344 10.7129 75.0582 11.1577 75.226 11.6582C75.3938 12.1586 75.3752 12.6776 75.4871 13.1965C75.5989 13.7155 75.9532 14.1603 76.0278 14.6793C76.1024 15.1983 76.2702 15.6987 76.3075 16.2177C76.3448 16.7366 76.177 17.2741 76.1957 17.7931C76.2143 18.3121 76.9043 18.8496 76.8856 19.3685C76.867 19.8875 76.2889 20.425 76.2703 20.9254C76.233 21.4629 76.7365 22.0375 76.6992 22.5379C76.6432 23.094 75.9905 23.5388 75.9159 24.0392C75.8414 24.5953 75.8041 25.1328 75.7108 25.5961C75.5989 26.1892 75.3379 26.6526 75.226 27.0974C75.0022 28.0427 75.1141 27.8017 75.5057 28.469C75.8973 29.1362 75.5803 29.2289 76.5127 29.5254C76.9416 29.6552 77.5942 29.3771 78.1537 29.581C78.6012 29.7478 79.2352 29.6181 79.7387 29.8405C80.1863 30.0444 80.5965 30.4522 81.0814 30.6931C81.5289 30.9155 81.79 31.5457 82.2748 31.8052C82.7224 32.0461 83.1513 32.3427 83.5988 32.6207C84.0463 32.8987 84.5871 32.9914 85.016 33.2879C85.4449 33.5845 86.0417 33.6586 86.4706 33.9737C86.8995 34.2888 86.8622 35.1043 87.2538 35.475C87.6454 35.8457 88.5032 35.6974 88.8575 36.0681C89.2118 36.4388 89.3982 36.9948 89.7153 37.4211C90.0323 37.8474 89.9763 38.4961 90.256 38.9409C90.5358 39.3858 91.4681 39.4599 91.7106 39.9233C91.953 40.3866 91.7106 41.0724 91.9157 41.5543C92.1208 42.0362 92.4565 42.481 92.587 42.9815C92.7175 43.4819 92.5311 44.0565 92.587 44.5754C92.6429 45.0944 92.643 45.5948 92.6616 46.1138C92.6802 46.6327 93.0346 47.1517 92.9973 47.6892C92.96 48.1897 92.5497 48.6716 92.4565 49.2091C92.3632 49.7466 92.7175 50.3767 92.587 50.8772C92.4565 51.4147 91.7852 51.7668 91.5987 52.2672C91.4122 52.7862 91.0206 53.1569 90.7782 53.6203C90.5358 54.1207 90.9647 54.9547 90.6849 55.3996C90.4052 55.8444 89.4542 55.8259 89.1185 56.2336C88.7829 56.6414 88.6337 57.1974 88.2421 57.5681C87.8505 57.9388 87.5708 58.4207 87.1419 58.7358C86.713 59.0509 86.3587 59.4957 85.8925 59.7737C85.4263 60.0517 84.7736 59.9591 84.2888 60.2C83.8039 60.4409 83.5056 61.0896 83.0207 61.2935C82.5359 61.4974 81.79 61.0341 81.2865 61.2009C80.783 61.3677 80.3914 61.9608 79.8693 62.0905C79.3471 62.2203 78.8436 62.4797 78.3215 62.5724C77.7994 62.6651 77.184 62.2573 76.6619 62.3315C76.1211 62.4056 75.5803 62.3685 75.0768 62.4056C74.5174 62.4427 74.0139 63.184 73.5104 63.2026C72.9323 63.2026 72.3729 62.7392 71.888 62.7392C71.2727 62.7392 70.7319 62.9987 70.2657 62.9802C69.2774 62.9246 69.2774 62.1461 68.7366 62.7392C68.1958 63.3323 68.662 63.2953 68.7366 64.2961C68.7739 64.7595 69.1655 65.2785 69.1655 65.8901C69.1655 66.3905 69.1655 66.928 69.1655 67.5026C69.1468 68.003 68.9604 68.5405 68.8858 69.0966C68.8298 69.6155 68.9231 70.1901 68.8298 70.7276C68.7366 71.2466 68.289 71.7099 68.1398 72.2474C67.9907 72.7849 68.0093 73.3224 67.8228 73.8414C67.6364 74.3603 67.5804 74.9164 67.3567 75.4168C67.1329 75.9173 66.4802 76.1953 66.2191 76.6586C65.9581 77.122 65.4359 77.4 65.1189 77.8448C64.8019 78.2897 65.1562 79.2164 64.8019 79.6427C64.4476 80.069 64.0374 80.4397 63.6458 80.8289C63.2542 81.2181 62.6947 81.3849 62.2472 81.7371C61.7996 82.0892 61.2588 82.2004 60.7926 82.497C60.3265 82.7935 59.6924 82.6638 59.1889 82.9233C58.7227 83.1642 58.2938 83.4608 57.7904 83.6832C57.2869 83.9056 56.9512 84.4802 56.4104 84.647C55.9069 84.8138 55.4035 85.0548 54.8627 85.203C54.3219 85.3513 53.8184 85.5181 53.3149 85.6108C52.7741 85.7035 52.1961 85.3513 51.6926 85.4069C51.1518 85.444 50.6297 86 50.1262 86C49.6227 86 49.0446 85.7961 48.5225 85.7405C48.0003 85.6849 47.4222 85.7405 46.9188 85.6293C46.4153 85.5181 45.9304 85.1474 45.4269 84.9806C44.9234 84.8138 44.5691 84.2763 44.0843 84.0724C43.5995 83.8685 43.2265 83.4978 42.7603 83.2569C42.2941 83.016 41.6042 83.1457 41.1753 82.8677C40.7464 82.5897 40.1869 82.4228 39.7767 82.0892C39.3664 81.7556 39.2732 81.0698 38.9002 80.7177C38.5273 80.3655 37.8746 80.2543 37.5203 79.8651C37.166 79.4759 36.9236 78.9754 36.5879 78.5862C36.2523 78.197 36.1217 77.6224 35.8234 77.1961C35.525 76.7698 34.7791 76.6216 34.4994 76.1953C34.201 75.7504 34.5553 74.9164 34.2942 74.4901C34.0145 74.0082 33.1567 73.897 32.933 73.4521C32.6719 72.9517 32.7838 72.3216 32.5787 71.8767C32.3362 71.3392 31.5717 71.0797 31.4039 70.672C31.0309 69.7823 31.8328 69.7082 31.1428 69.356C30.4528 69.0039 30.7885 69.4487 29.8374 69.7082C29.4085 69.8379 28.8864 69.9491 28.3083 70.0974C27.8421 70.2086 27.3387 70.431 26.7792 70.5422C26.2944 70.6535 25.7163 70.4681 25.1755 70.5608C24.672 70.6534 24.1499 70.6905 23.6091 70.7646C23.1056 70.8388 22.6208 71.3207 22.08 71.3763C21.5392 71.4319 20.9798 70.7276 20.439 70.7646C19.8982 70.8017 19.4134 71.5246 18.8912 71.5246C18.3691 71.5246 17.8283 71.2651 17.3062 71.2466C16.784 71.228 16.2246 71.4504 15.7025 71.3948C15.1803 71.3392 14.6955 70.8759 14.1734 70.8017C13.6512 70.7276 13.1477 70.5423 12.6443 70.431C12.1408 70.3198 11.5067 70.6164 11.0033 70.4496C10.4998 70.2828 10.2201 69.5043 9.73521 69.3004C9.25037 69.0966 8.41123 69.6711 7.94503 69.4302C7.47884 69.1892 7.10588 68.7073 6.65834 68.4108C6.21079 68.1142 6.1735 67.3172 5.7819 66.9836C5.3903 66.65 4.5325 66.7983 4.15955 66.4091C3.78659 66.0198 3.43229 65.6121 3.11527 65.1858C2.79826 64.7595 2.9288 64.0552 2.64908 63.5918C2.36937 63.1285 2.25748 62.628 2.0337 62.1646C1.80993 61.7013 1.30644 61.3306 1.13861 60.8487C0.970785 60.3668 0.784311 59.8479 0.653777 59.3474C0.523243 58.847 0.243523 58.3466 0.168932 57.8276C0.0943416 57.3086 0.0197504 56.7526 0.00110273 56.2336C-0.017545 55.7147 0.206233 55.1771 0.22488 54.6582C0.243528 54.1392 0.168934 53.5832 0.243525 53.0828C0.318116 52.5823 0.243524 51.9892 0.374058 51.4888C0.504592 50.9884 1.13861 50.5991 1.30644 50.1172C1.47427 49.6353 1.30645 49.0052 1.49293 48.5233C1.6794 48.0414 2.25748 47.7077 2.48125 47.2444C2.70502 46.781 2.87285 46.2806 3.13392 45.8172C3.39499 45.3539 3.93577 45.0759 4.21549 44.631C4.49521 44.1862 4.58845 43.6302 4.88681 43.2039C5.18517 42.7776 5.33435 42.2216 5.65136 41.8138C5.98702 41.3875 6.41592 41.0724 6.75158 40.6832C7.10589 40.2569 7.19912 39.6453 7.53478 39.2746C7.90773 38.8483 8.46717 38.6444 8.80283 38.2923C9.21308 37.866 9.26902 37.1431 9.58603 36.8465C10.2946 36.1793 10.91 36.8465 11.0778 36.1052C11.2457 35.3638 10.4065 35.716 10.0336 34.8078C9.86575 34.4 10.1455 33.7327 9.94034 33.1767C9.77251 32.7319 9.71656 32.1944 9.53009 31.6754C9.3809 31.2121 8.89607 30.8228 8.74689 30.3039C8.5977 29.822 8.39257 29.3401 8.26204 28.8211C8.13151 28.3392 8.26204 27.7647 8.13151 27.2457C8.00097 26.7267 7.96368 26.2263 7.87044 25.7073C7.7772 25.1884 7.98233 24.6509 7.90774 24.1319C7.83315 23.6129 7.31101 23.1681 7.25507 22.6491C7.19913 22.1302 7.60937 21.5927 7.59072 21.0737C7.57207 20.5547 7.3856 20.0543 7.3856 19.5353C7.3856 19.0164 6.86347 18.4418 6.91941 17.9228C6.97535 17.4039 7.49749 16.9405 7.60937 16.4216C7.72126 15.9026 7.68396 15.3651 7.83314 14.8647C7.98233 14.3642 8.03827 13.8082 8.22474 13.3263C8.41122 12.8444 9.13848 12.622 9.39955 12.1771C9.66062 11.7323 9.8098 11.2319 10.1268 10.8241C10.4438 10.4164 10.4811 9.76767 10.8541 9.37844V9.35992ZM40.1869 30.9897C39.6648 31.1935 39.5343 31.5457 39.2918 32.0832C39.0681 32.5466 38.3408 32.9729 38.3594 33.566C38.3781 34.0849 38.434 34.7707 38.6578 35.3267C38.8816 35.8828 39.4224 36.3091 39.7767 36.7168C40.1869 37.1802 40.5599 37.866 41.0447 38.0513C41.6042 38.2737 42.3314 37.8474 42.8536 37.6435C43.3757 37.4397 43.7859 37.0504 44.0284 36.5129C44.2521 36.0496 44.4013 35.475 44.364 34.8819C44.3454 34.3629 44.4573 33.6957 44.2521 33.1396C44.047 32.5836 43.1706 32.4539 42.8349 32.0461C42.4247 31.5828 42.1636 31.175 41.6974 30.9897C41.138 30.7672 40.7277 30.7858 40.2056 30.9897H40.1869ZM57.809 42.4254C57.8463 41.8694 57.5666 41.6099 57.1936 41.1466C56.858 40.7573 56.802 39.9233 56.2426 39.6823C55.7578 39.4785 55.1051 39.2375 54.5084 39.2004C53.9116 39.1634 53.2963 39.4599 52.7741 39.6082C52.1961 39.775 51.3942 39.8306 51.0212 40.1642C50.5924 40.572 50.6483 41.406 50.6296 41.9621C50.611 42.5181 50.7788 43.0556 51.1518 43.5004C51.4874 43.8897 51.935 44.2789 52.4944 44.5013C52.9793 44.7052 53.5387 45.0944 54.1354 45.1315C54.7321 45.1685 55.217 44.4642 55.7391 44.316C56.3172 44.1492 56.802 44.0935 57.1936 43.7414C57.6225 43.3336 57.7904 42.9629 57.8277 42.4069L57.809 42.4254ZM42.2382 45.7617C41.8279 45.391 41.455 45.428 40.8582 45.428C40.3361 45.428 39.6461 44.9647 39.1054 45.2427C38.6392 45.4836 38.0424 45.8358 37.6508 46.2806C37.2592 46.7254 37.0914 47.3927 36.8863 47.8746C36.6439 48.4306 36.1777 49.0608 36.215 49.5797C36.2523 50.1729 36.9609 50.6547 37.3711 51.0254C37.7814 51.3961 38.3035 51.6 38.9002 51.5815C39.4224 51.5815 40.0004 51.4703 40.5412 51.1737C41.0074 50.9328 41.6601 50.7474 42.0704 50.3026C42.4806 49.8578 42.2382 49.0422 42.4433 48.5603C42.6857 48.0043 42.9468 47.5965 42.9095 47.0776C42.8722 46.4845 42.6671 46.1138 42.2568 45.7431L42.2382 45.7617Z" stroke="#0A1C4C" stroke-width="2" mask="url(#path-1-inside-1_294_7402)"/>
</g>
</svg>
