<svg width="122" height="61" viewBox="0 0 122 61" fill="none" xmlns="http://www.w3.org/2000/svg">
<path opacity="0.3" d="M25.7374 60.9488C25.2584 60.9488 24.7623 60.9317 24.2833 60.9147C23.8043 60.8976 23.3595 60.2319 22.8805 60.1978C22.4015 60.1637 21.8541 60.7781 21.3751 60.7098C20.8961 60.6416 20.5539 59.7882 20.0749 59.7028C19.5959 59.6175 19.0314 60.1295 18.5524 60.0271C18.0734 59.9247 17.697 59.498 17.2351 59.3785C16.7732 59.259 16.3798 58.9518 15.9179 58.8153C15.456 58.6787 14.8401 59.0542 14.3782 58.9006C13.9163 58.747 13.54 58.4056 13.0781 58.2349C12.6162 58.0643 12.2569 57.6888 11.8121 57.4669C11.3674 57.245 10.9055 57.0914 10.4949 56.8524C10.0843 56.6135 9.77639 56.2038 9.36581 55.9137C8.95524 55.6235 8.6302 55.3163 8.23674 55.009C7.84327 54.7018 7.10766 54.8042 6.74841 54.4629C6.38916 54.1215 6.11544 53.6948 5.7904 53.3193C5.46537 52.9438 5.36272 52.3976 5.05479 52.0221C4.74686 51.6466 4.64422 51.1346 4.37051 50.7249C4.09679 50.3153 3.8915 49.8886 3.652 49.4789C3.4125 49.0693 2.9335 48.7791 2.71111 48.3354C2.48871 47.8916 2.00971 47.5844 1.82153 47.1235C1.63335 46.6627 1.77021 46.0994 1.59914 45.6386C1.42807 45.1777 1.30832 44.7169 1.17146 44.2561C1.0346 43.7952 0.931955 43.3173 0.812205 42.8394C0.692454 42.3615 0.0937061 41.986 0.00817001 41.5081C-0.0773661 41.0302 0.538488 40.4498 0.470059 39.9549C0.40163 39.4599 0.521384 38.999 0.48717 38.5041C0.452956 38.0261 0.0423787 37.5824 0.0423787 37.1045C0.0423787 36.6265 0.41874 36.1657 0.452955 35.7049C0.487169 35.244 0.213453 34.749 0.264774 34.2711C0.316096 33.7932 0.247669 33.2982 0.333205 32.8374C0.418741 32.3766 0.179242 31.8133 0.281885 31.3525C0.384528 30.8916 0.863527 30.5161 1.00039 30.0553C1.13724 29.5944 1.29121 29.1507 1.47939 28.7069C1.66756 28.2631 2.16367 27.9729 2.36896 27.5462C2.57425 27.1195 2.28343 26.4197 2.52293 26.0101C2.76243 25.6005 3.01904 25.1738 3.29275 24.7812C3.56647 24.3886 4.31918 24.3545 4.62711 23.996C4.93504 23.6376 5.17455 23.228 5.49958 22.8866C5.82462 22.5452 5.91016 21.9308 6.2523 21.6236C6.59444 21.3163 7.12477 21.1627 7.50113 20.8896C7.87748 20.6165 8.40781 20.5483 8.80128 20.2922C9.19474 20.0362 9.41714 19.473 9.82771 19.2511C10.2725 19.0121 10.5975 18.5684 11.0081 18.3635C11.4529 18.1587 12.103 18.3977 12.5307 18.2099C12.9925 18.0222 13.4887 18.0222 13.9334 17.8515C14.3953 17.6808 14.7204 17.1175 15.1652 16.981C15.6442 16.8445 16.1061 16.7079 16.568 16.6055C17.047 16.486 17.6115 16.8786 18.0734 16.8103C18.5524 16.725 19.0143 16.6908 19.4933 16.6396C19.9894 16.5884 20.4342 16.2812 20.8961 16.2641C21.3922 16.2471 21.8712 16.1276 22.3331 16.1276C22.8292 16.1276 23.2911 16.3665 23.7701 16.4007C24.2662 16.4348 24.7965 15.974 25.2584 16.0252C25.7545 16.0764 26.1822 16.5031 26.6441 16.5714C27.1402 16.6396 27.585 16.8615 28.0469 16.9298C28.4917 16.9981 28.9365 17.1175 29.3642 17.1688C29.826 17.237 30.3222 16.6908 30.7498 16.725C31.2117 16.7591 31.6052 16.8103 32.0329 16.7932C32.4948 16.7762 32.9738 17.1517 33.3843 17.0493C33.7949 16.9298 34.0002 16.3324 34.4279 16.0081C34.7871 15.7521 35.1806 15.5302 35.557 15.1718C35.882 14.8475 36.4807 14.7621 36.8229 14.3866C37.1308 14.0453 37.3532 13.5844 37.6783 13.2089C37.9862 12.8505 38.3625 12.5433 38.6876 12.1507C38.9955 11.7752 38.9442 11.0754 39.2692 10.6828C39.5943 10.2903 40.1759 10.1366 40.5009 9.76114C40.826 9.38564 41.4418 9.26616 41.784 8.90773C42.1261 8.54929 42.5025 8.22499 42.8446 7.86656C43.1868 7.50813 43.3578 6.97901 43.7171 6.62057C44.0763 6.26214 44.2474 5.71596 44.6409 5.39166C45.0344 5.06736 45.5134 4.86255 45.9239 4.57239C46.3345 4.28223 46.8648 4.17982 47.2925 3.90673C47.7202 3.63364 48.0965 3.3264 48.5413 3.07038C48.9861 2.81435 49.3967 2.59247 49.8586 2.37058C50.3205 2.1487 50.6455 1.68785 51.1074 1.5001C51.5693 1.31235 51.9457 0.868574 52.4418 0.697891C52.9379 0.527209 53.6222 1.15874 54.1183 1.03926C54.6144 0.919786 55.025 0.59549 55.5211 0.493081C56.0172 0.390671 56.4791 0.271183 56.9923 0.20291C57.5055 0.134638 57.9674 0.0493083 58.4806 0.0151718C58.9938 -0.0189647 59.4728 0.0151718 59.9861 0.0151718C60.4993 0.0151718 60.9612 0.0151718 61.4231 0.0151718C61.885 0.0151718 62.3982 0.0493005 62.8601 0.100505C63.322 0.15171 63.8352 0.100507 64.3142 0.16878C64.7932 0.237053 65.2551 0.40773 65.717 0.510139C66.1789 0.612549 66.7263 0.476008 67.1882 0.595486C67.6501 0.714964 68.0265 1.17581 68.4712 1.32942C68.916 1.48304 69.549 1.22702 69.9938 1.41477C70.4386 1.60252 70.7465 2.14869 71.1742 2.35351C71.6019 2.55833 71.9782 2.88264 72.4059 3.12159C72.8336 3.36055 73.2442 3.5995 73.6376 3.85553C74.0311 4.11155 74.6127 4.14568 75.0062 4.41877C75.3997 4.69186 75.8616 4.91375 76.2379 5.20391C76.6143 5.49407 76.5116 6.34748 76.8709 6.67178C77.2301 6.99607 77.7605 7.13262 78.1026 7.45691C78.4448 7.78121 78.65 8.25913 78.9751 8.6005C79.3001 8.94186 79.608 9.31736 79.916 9.67579C80.2239 10.0513 80.9253 10.1196 81.199 10.478C81.5069 10.8706 81.2845 11.6386 81.5583 11.9971C81.8491 12.3896 82.5334 12.475 82.8071 12.8505C83.1321 13.3113 83.3716 13.8063 83.6796 14.216C84.0388 14.6939 84.1243 15.3595 84.4323 15.718C84.8942 16.23 85.5956 16.3324 85.9548 16.4519C86.3141 16.5714 86.776 17.0322 87.3234 16.9981C87.734 16.9981 88.1788 16.5031 88.6749 16.4348C89.1025 16.3665 89.5302 16.1447 90.0092 16.0593C90.454 15.974 90.8817 15.7521 91.3436 15.6667C91.8226 15.5814 92.3871 15.9228 92.8832 15.8374C93.3793 15.7521 93.8755 15.8716 94.3716 15.7862C94.8677 15.7009 95.3296 15.6155 95.8257 15.5473C96.3218 15.479 96.7666 15.24 97.2798 15.1888C97.793 15.1376 98.2378 14.8304 98.751 14.8133C99.2642 14.7963 99.7432 14.9669 100.256 14.9669C100.77 14.9669 101.249 14.728 101.762 14.7451C102.275 14.7621 102.771 14.7451 103.267 14.7963C103.763 14.8475 104.225 15.1718 104.721 15.2742C105.218 15.3766 105.765 15.1888 106.261 15.3083C106.757 15.4278 107.031 16.1788 107.527 16.3324C108.023 16.486 108.468 16.5884 108.93 16.7762C109.392 16.9639 110.11 16.5543 110.572 16.7762C111.034 16.9981 111.102 17.8856 111.547 18.1246C111.958 18.3635 112.471 18.4147 112.864 18.6878C113.258 18.9609 113.771 19.0633 114.148 19.3535C114.524 19.6436 114.592 20.2752 114.952 20.5995C115.311 20.9238 116.149 20.736 116.474 21.0774C116.799 21.4187 116.525 22.2892 116.833 22.6647C117.141 23.0402 117.637 23.228 117.911 23.6205C118.185 24.0131 118.818 24.1667 119.074 24.5764C119.331 24.986 119.588 25.4127 119.793 25.8394C119.998 26.2661 119.964 26.8294 120.135 27.2561C120.306 27.6828 120.546 28.1266 120.682 28.5703C120.819 29.0141 120.631 29.5774 120.751 30.0382C120.871 30.499 121.384 30.8575 121.487 31.3354C121.589 31.8133 121.452 32.3083 121.521 32.7862C121.589 33.2641 121.88 33.7079 121.914 34.1858C121.948 34.6637 121.983 35.1416 122 35.6195C122.017 36.0974 121.264 36.5583 121.247 37.0362C121.23 37.5141 121.743 38.0091 121.709 38.487C121.658 38.982 121.76 39.494 121.692 39.9719C121.623 40.4498 121.264 40.9107 121.161 41.3886C121.059 41.8665 121.161 42.3956 121.025 42.8735C120.888 43.3514 120.597 43.7781 120.443 44.2561C120.289 44.734 120.135 45.1948 119.947 45.6557C119.759 46.1165 119.382 46.492 119.177 46.9358C118.972 47.3795 118.612 47.738 118.373 48.1647C118.133 48.5914 118.082 49.1205 117.826 49.5301C117.569 49.9398 117.175 50.2811 116.902 50.6737C116.628 51.0663 116.679 51.7319 116.389 52.1245C116.098 52.5171 115.841 52.9609 115.516 53.3364C115.191 53.7119 114.473 53.7119 114.13 54.0532C113.788 54.3946 113.651 54.9749 113.275 55.2821C112.899 55.5894 112.505 55.9137 112.112 56.2038C111.718 56.494 111.393 56.9036 110.983 57.1767C110.572 57.4498 109.99 57.4498 109.563 57.6888C109.135 57.9277 108.605 57.9448 108.16 58.1325C107.715 58.3203 107.339 58.6787 106.877 58.8323C106.415 58.986 105.97 59.1737 105.508 59.2932C105.046 59.4127 104.602 59.7028 104.123 59.8052C103.644 59.9076 103.148 59.8735 102.669 59.9418C102.19 60.01 101.711 60.1124 101.232 60.1466C100.753 60.1807 100.256 60.01 99.7603 60.0442C99.2642 60.0783 98.8023 60.0271 98.3062 60.0442C97.8101 60.0613 97.3311 60.5904 96.835 60.5904C96.3389 60.5904 95.8941 60.0612 95.398 60.0271C94.9019 59.993 94.44 60.0271 93.9439 59.9759C93.4478 59.9247 93.003 59.7199 92.524 59.6516C92.045 59.5833 91.4804 60.0954 91.0014 60.0271C90.5224 59.9588 90.0434 59.8735 89.5473 59.7882C89.0512 59.7028 88.6749 59.1225 88.1959 59.0371C87.7169 58.9518 87.255 58.7641 86.776 58.6787C86.297 58.5934 85.8008 58.6104 85.3218 58.508C84.8428 58.4056 84.2441 58.9006 83.7651 58.7982C83.2861 58.6958 82.9439 57.9619 82.4649 57.8594C81.9859 57.757 81.4214 58.0301 80.9595 57.9277C80.4976 57.8253 79.9502 57.996 79.4712 57.8936C78.9922 57.7912 78.5474 57.5181 78.0855 57.4157C77.6236 57.3133 77.1959 57.0743 76.734 56.9719C76.2721 56.8695 75.8445 56.5964 75.3826 56.494C74.9207 56.3916 74.4588 56.3233 73.9969 56.2209C73.535 56.1185 72.9875 56.4257 72.5257 56.3404C72.0638 56.255 71.6361 55.999 71.1742 55.9137C70.7123 55.8283 70.3188 55.3504 69.8569 55.248C69.395 55.1456 68.916 55.0944 68.4541 55.009C67.9922 54.9237 67.479 55.1285 67 55.0603C66.521 54.992 66.0762 54.7872 65.6143 54.7189C65.1524 54.6506 64.7076 54.241 64.2458 54.1898C63.7839 54.1386 63.2706 54.4629 62.8088 54.4287C62.3469 54.3946 61.885 54.0703 61.4231 54.0532C60.9612 54.0362 60.4651 54.1386 60.0032 54.1386C59.5413 54.1386 59.0623 54.4287 58.5833 54.4629C58.1043 54.497 57.6424 54.5653 57.1805 54.5994C56.7186 54.6335 56.2738 54.8896 55.7948 54.9408C55.3158 54.992 54.8197 54.753 54.3578 54.8384C53.8959 54.9237 53.4682 55.2139 53.0063 55.2992C52.5444 55.3846 52.0996 55.504 51.6377 55.6064C51.1758 55.7089 50.6284 55.3846 50.1665 55.487C49.7046 55.5894 49.2256 55.6064 48.7637 55.7259C48.3018 55.8454 47.9597 56.3574 47.4978 56.4769C47.0359 56.5964 46.42 56.1185 45.9753 56.255C45.5305 56.3916 45.291 57.2962 44.8291 57.4327C44.3672 57.5693 43.7 56.9207 43.2381 57.0572C42.7591 57.1938 42.3485 57.5522 41.8695 57.6888C41.3905 57.8253 40.9457 58.0643 40.4496 58.1837C39.9535 58.3032 39.5087 58.5251 39.0126 58.6446C38.5165 58.7641 38.0204 58.7982 37.5414 58.9177C37.0624 59.0372 36.515 58.9177 36.036 59.0371C35.557 59.1566 35.1464 59.6857 34.6674 59.7711C34.1884 59.8564 33.6581 59.8394 33.1619 59.9247C32.6658 60.01 32.1868 60.1295 31.6907 60.1978C31.1946 60.2661 30.6814 60.1978 30.1853 60.2661C29.6892 60.3343 29.1931 60.3173 28.697 60.3685C28.2009 60.4197 27.7219 60.8123 27.2257 60.8464C26.7296 60.8805 26.2164 61 25.7203 61L25.7374 60.9488ZM22.008 18.2953C21.529 18.2953 21.0671 18.2953 20.571 18.3294C20.092 18.3635 19.5446 17.7832 19.0485 17.8515C18.5695 17.9198 18.2102 18.6537 17.7141 18.7561C17.2522 18.8585 16.5851 18.1928 16.0889 18.3294C15.6271 18.4489 15.3362 19.1828 14.8572 19.3364C14.4124 19.49 13.8308 19.3535 13.3689 19.5412C12.9241 19.729 12.3938 19.7461 11.9319 19.9679C11.5042 20.1728 11.2989 20.8896 10.8541 21.1286C10.4094 21.3675 9.91325 21.4529 9.50267 21.726C9.0921 21.9991 8.56178 22.1356 8.18542 22.4428C7.80906 22.7501 7.46691 23.1426 7.10766 23.484C6.74841 23.8254 6.26941 24.0814 5.94437 24.4569C5.61933 24.8324 5.26008 25.2079 4.96926 25.6175C4.67844 26.0272 4.90083 26.744 4.64422 27.1707C4.38762 27.5974 4.07969 27.9559 3.85729 28.4167C3.6349 28.8776 3.19011 29.2019 3.01904 29.6627C2.84796 30.1235 2.48871 30.5332 2.35186 31.0111C2.215 31.489 2.02682 31.9669 1.92418 32.4619C1.82153 32.9569 2.00971 33.486 1.94128 33.981C1.87285 34.4759 2.11236 34.988 2.07814 35.483C2.04393 35.978 1.68468 36.4559 1.68468 36.9509C1.68468 37.4458 1.68468 37.9408 1.68468 38.4358C1.71889 38.9137 1.736 39.3916 1.80443 39.8695C1.87286 40.3474 2.4545 40.74 2.54004 41.2008C2.62557 41.6617 2.06103 42.2761 2.16368 42.737C2.26632 43.1978 2.26632 43.7269 2.40318 44.1707C2.54003 44.6145 3.08746 44.9729 3.25854 45.4167C3.42961 45.8605 3.25854 46.4579 3.46382 46.9016C3.66911 47.3454 4.14811 47.6526 4.37051 48.0623C4.5929 48.4719 4.96926 48.8303 5.20876 49.2229C5.44826 49.6155 6.0128 49.8203 6.30363 50.1958C6.59445 50.5713 6.59445 51.1516 6.90238 51.5101C7.21031 51.8685 7.53534 52.2099 7.87749 52.5512C8.21963 52.8926 8.32227 53.4729 8.69863 53.7801C9.07499 54.0874 9.79349 53.9338 10.187 54.2068C10.5804 54.4799 10.9568 54.736 11.3502 54.9749C11.7437 55.2139 11.8806 55.9649 12.3083 56.1868C12.7359 56.4086 13.2149 56.5281 13.6597 56.6988L13.7966 56.3404C14.2585 56.5281 14.6519 56.9036 15.1138 57.0572C15.5757 57.2109 15.9863 57.6034 16.4653 57.74C16.9443 57.8765 17.526 57.6376 18.005 57.757C18.484 57.8765 19.0143 57.7229 19.5104 57.8253C20.0065 57.9277 20.4 58.4739 20.8961 58.5592C21.3922 58.6446 21.8712 58.8665 22.3673 58.9177C22.8634 58.9689 23.3937 58.5592 23.8898 58.5934C24.386 58.6275 24.8821 58.6275 25.3782 58.6275C25.8743 58.6275 26.3875 59.1225 26.8836 59.1054C27.3797 59.0884 27.8929 59.0884 28.389 59.0542C28.8851 59.0201 29.3641 58.7128 29.8603 58.6616C30.3564 58.6104 30.8354 58.4398 31.3315 58.3715C31.8276 58.3032 32.3579 58.4398 32.8369 58.3544C33.3159 58.2691 33.7265 57.6717 34.2055 57.5693C34.6845 57.4669 35.249 57.7229 35.728 57.6205C36.207 57.5181 36.7374 57.5351 37.2164 57.4157C37.6954 57.2962 38.1915 57.2108 38.6705 57.0914C39.1495 56.9719 39.4745 56.255 39.9535 56.1356C40.4325 56.0161 40.9115 55.9137 41.3905 55.7771C41.8695 55.6406 42.4683 55.9307 42.9302 55.8113C43.3921 55.6747 43.7342 55.1285 44.2132 55.009C44.6922 54.8896 45.1712 54.8554 45.6502 54.736C46.1292 54.6165 46.6766 54.8384 47.1557 54.736C47.6347 54.6335 48.0623 54.3775 48.5413 54.258C49.0203 54.1386 49.4993 54.1215 49.9783 54.0191C50.4573 53.9167 50.8166 53.3364 51.2956 53.2339C51.7746 53.1315 52.322 53.3705 52.7839 53.2852C53.2458 53.1998 53.7933 53.507 54.2723 53.4217C54.7513 53.3364 55.2303 53.3364 55.7093 53.2852C56.1883 53.234 56.633 52.9096 57.1292 52.8755C57.6253 52.8414 58.07 52.5 58.5662 52.4659C59.0623 52.4317 59.5413 52.5854 60.0374 52.5854C60.5335 52.5854 60.9783 52.8414 61.4744 52.8585C61.9705 52.8755 62.4153 52.8584 62.9114 52.8926C63.4075 52.9267 63.8523 52.9779 64.3484 53.0291C64.8445 53.0803 65.3235 52.8585 65.8196 52.9267C66.3157 52.995 66.8119 52.7731 67.2908 52.8414C67.7699 52.9097 68.112 53.7801 68.591 53.8655C69.07 53.9508 69.5661 53.8143 70.0451 53.8996C70.5241 53.985 71.0031 54.0191 71.465 54.1044C71.9269 54.1898 72.4059 54.241 72.8849 54.3434C73.3639 54.4458 73.8087 54.5653 74.2877 54.6677C74.7667 54.7701 75.2286 54.8554 75.7076 54.9578C76.1866 55.0602 76.6485 55.1456 77.1275 55.248C77.6065 55.3504 78.1026 55.3504 78.5816 55.4528C79.0606 55.5552 79.5225 55.743 80.0186 55.8625C80.5147 55.9819 81.0451 55.8283 81.5241 55.9307C82.0031 56.0331 82.4307 56.4599 82.9097 56.5623C83.3887 56.6647 83.9704 56.3233 84.4665 56.4257C84.9626 56.5281 85.3561 57.006 85.8522 57.0914C86.3483 57.1767 86.8102 57.3815 87.2892 57.4839C87.7682 57.5864 88.2643 57.6546 88.7604 57.74C89.2565 57.8253 89.7868 57.6034 90.2829 57.6717C90.779 57.74 91.2752 57.6888 91.7713 57.757C92.2674 57.8253 92.6779 58.5763 93.157 58.6275C93.636 58.6787 94.1834 58.4568 94.6624 58.491C95.1414 58.5251 95.6546 58.7299 96.1336 58.747C96.6126 58.7641 97.1429 58.7811 97.6219 58.7982C98.1009 58.8153 98.6142 58.3032 99.1103 58.3032C99.6064 58.3032 100.137 58.9006 100.633 58.8665C101.129 58.8323 101.574 58.2862 102.07 58.2179C102.566 58.1496 103.062 58.1837 103.541 58.0984C104.02 58.0131 104.602 58.2349 105.081 58.1155C105.56 57.996 105.936 57.4669 106.398 57.3133C106.86 57.1597 107.476 57.3474 107.92 57.1596C108.365 56.9719 108.622 56.3574 109.032 56.1185C109.443 55.8795 109.785 55.504 110.179 55.2309C110.572 54.9578 110.88 54.5823 111.256 54.2922C111.633 54.002 112.283 54.0362 112.642 53.7119C113.001 53.3876 113.497 53.1827 113.84 52.8414C114.182 52.5 114.49 52.1074 114.798 51.7319C115.106 51.3564 115.259 50.8615 115.55 50.4689C115.841 50.0763 115.875 49.5301 116.132 49.1205C116.389 48.7109 116.799 48.4036 117.039 47.9769C117.278 47.5502 117.261 47.0211 117.466 46.5773C117.672 46.1336 117.791 45.6898 117.962 45.2289C118.133 44.7681 118.544 44.4267 118.698 43.9659C118.852 43.5051 118.698 42.9759 118.835 42.498C118.972 42.0201 119.69 41.7129 119.793 41.235C119.896 40.7571 119.913 40.2621 119.981 39.7842C120.049 39.3063 119.451 38.7601 119.502 38.2651C119.553 37.7701 120.323 37.3264 120.34 36.8314C120.357 36.3364 120.135 35.8243 120.135 35.3464C120.135 34.8685 119.878 34.3735 119.827 33.8786C119.776 33.3836 120.135 32.8374 120.067 32.3424C119.998 31.8474 119.177 31.5061 119.057 31.0282C118.938 30.5503 119.553 29.8675 119.417 29.3896C119.28 28.9117 118.835 28.5362 118.647 28.0754C118.459 27.6145 117.843 27.3585 117.637 26.9147C117.432 26.4709 117.158 26.0784 116.919 25.6687C116.679 25.2591 116.628 24.6958 116.337 24.3033C116.046 23.9107 115.704 23.5693 115.379 23.1938C115.054 22.8183 114.986 22.221 114.627 21.8796C114.267 21.5382 113.617 21.5212 113.241 21.2139C112.864 20.9067 112.591 20.4459 112.18 20.1728C111.77 19.8997 111.239 19.8485 110.812 19.6095C110.367 19.3535 109.922 19.1487 109.477 18.9438C109.032 18.739 108.844 17.8515 108.382 17.6637C107.92 17.476 107.236 17.8344 106.757 17.6808C106.278 17.5272 105.748 17.5613 105.269 17.4418C104.79 17.3224 104.328 16.981 103.832 16.9127C103.336 16.8444 102.805 16.981 102.309 16.9469C101.813 16.9127 101.317 16.7079 100.821 16.7079C100.325 16.7079 99.8117 16.7079 99.3155 16.725C98.8194 16.742 98.2891 16.5543 97.793 16.6055C97.2969 16.6567 96.7495 16.5372 96.2534 16.6055C95.7573 16.6738 95.2611 16.9469 94.7821 17.0151C94.3031 17.0834 93.7557 17.0322 93.2596 17.1175C92.7464 17.2029 92.3358 17.732 91.8568 17.8173C91.3094 17.9197 90.7962 18.1246 90.2829 18.2099C89.7184 18.3123 89.1196 17.8856 88.6235 17.9368C88.0419 18.0051 87.5458 18.3635 87.0497 18.3635C86.468 18.3635 85.9377 18.2782 85.4758 18.1246C85.0481 17.971 84.5178 17.8344 84.1243 17.476C83.7822 17.1858 83.6453 16.6226 83.3032 16.2129C83.0124 15.8716 82.8926 15.3595 82.5676 14.9328C82.2939 14.5573 81.8491 14.2671 81.5412 13.8575C81.2674 13.482 80.9595 13.1236 80.6687 12.731C80.395 12.3555 79.9673 12.0824 79.6594 11.7069C79.3514 11.3314 79.1633 10.9047 78.8382 10.5292C78.5132 10.1537 78.2052 9.8294 77.8802 9.47097C77.5552 9.11253 77.3841 8.63463 77.042 8.29327C76.6998 7.9519 76.3919 7.59347 76.0326 7.26918C75.6734 6.94488 74.9549 7.06436 74.5785 6.7742C74.2022 6.48404 74.1337 5.8013 73.7232 5.52821C73.3126 5.25512 72.902 5.0503 72.4743 4.79427C72.0467 4.53825 71.7216 4.16275 71.2939 3.94086C70.8662 3.71897 70.1991 4.02621 69.7543 3.83845C69.3095 3.6507 68.916 3.46295 68.4541 3.29227C67.9922 3.12159 67.7185 2.49006 67.2566 2.35351C66.7947 2.21697 66.35 2.01215 65.8709 1.89268C65.3919 1.7732 64.9129 1.80733 64.4168 1.73906C63.9207 1.67078 63.4075 2.19991 62.9285 2.1487C62.4495 2.0975 62.0389 1.41476 61.5428 1.3977C61.0467 1.38063 60.5848 1.75613 60.0887 1.75613C59.5755 1.75613 59.0965 2.06335 58.6004 2.09749C58.1043 2.13162 57.5911 2.01215 57.112 2.09749C56.633 2.18283 56.1027 2.0975 55.6066 2.1999C55.1105 2.30231 54.5802 2.25111 54.1012 2.38766C53.6222 2.5242 53.1432 2.71194 52.6642 2.88262C52.1852 3.05331 51.8943 3.63364 51.4325 3.83845C50.9706 4.04327 50.4744 4.12861 50.0297 4.36757C49.5849 4.60652 48.9519 4.52118 48.5242 4.79427C48.0966 5.06736 47.686 5.3746 47.2754 5.66476C46.8648 5.95492 46.6424 6.5011 46.2661 6.80833C45.8897 7.11555 45.4107 7.35452 45.0344 7.69588C44.658 8.03725 44.0421 8.12259 43.6829 8.48102C43.3236 8.83945 43.2381 9.47098 42.896 9.82941C42.5538 10.1878 41.9893 10.3927 41.6642 10.7682C41.3392 11.1437 41.0826 11.6216 40.7747 11.98C40.4667 12.3384 40.347 12.9358 40.0391 13.3113C39.7311 13.6698 39.4916 14.0623 39.2008 14.4037C38.8929 14.7621 38.756 15.2571 38.4481 15.5985C38.123 15.9569 37.5927 16.0934 37.2848 16.4177C36.9426 16.7591 36.7716 17.2712 36.4294 17.5443C36.0531 17.8515 35.6767 18.1929 35.3004 18.4147C34.8898 18.6537 34.2739 18.4659 33.8462 18.5854C33.3672 18.722 32.8882 18.7049 32.375 18.739C31.8618 18.7732 31.3828 19.1657 30.8696 19.1316C30.3906 19.0975 29.9458 18.4318 29.4326 18.3465C28.9536 18.2782 28.3206 19.0121 27.8074 18.9268C27.3455 18.8585 26.9691 17.988 26.473 17.9198C25.9769 17.8515 25.4808 18.0222 24.9847 17.971C24.4886 17.9198 24.0096 17.971 23.5135 17.971C23.0174 17.971 22.5384 18.3294 22.0423 18.3294L22.008 18.2953ZM92.1305 48.0964C91.5147 48.0964 90.6764 47.7892 90.1119 47.3283C89.7013 46.987 89.8895 46.2018 89.7184 45.7751C89.5473 45.3484 88.8459 44.9047 88.8801 44.3926C88.9144 43.9488 89.821 43.6245 89.9921 43.1295C90.1461 42.7028 89.8039 42.0201 90.0434 41.5593C90.2658 41.1496 90.7962 40.8765 91.0699 40.4498C91.3265 40.0573 91.7542 39.7671 92.045 39.3575C92.3358 38.9478 92.1818 38.248 92.4898 37.8555C92.7977 37.4629 93.2425 37.1898 93.5504 36.8143L93.7044 36.9338C94.0123 36.5583 94.2518 36.1486 94.5426 35.8073C94.8677 35.4318 95.2953 35.1928 95.5862 34.8685C95.9283 34.493 96.2705 34.2029 96.5613 33.8956C96.9205 33.5372 96.8521 32.8033 97.1771 32.5131C97.5535 32.1717 98.0154 31.9669 98.3575 31.728C98.8365 31.3866 99.4524 31.3866 99.8972 31.2159C100.445 31.0111 100.907 31.1647 101.386 31.2159C101.865 31.2671 102.19 31.489 102.634 31.8474C103.079 32.2059 103.541 32.3936 103.712 32.8886C103.883 33.3836 104.208 33.8956 104.14 34.4759C104.071 34.9539 103.592 35.3806 103.37 35.9267C103.216 36.3193 102.994 36.7119 102.737 37.1557C102.532 37.5312 102.275 37.9067 102.001 38.3334C101.762 38.6918 101.933 39.3745 101.642 39.7842C101.386 40.1426 100.547 40.1085 100.256 40.501C99.9827 40.8595 99.5722 41.1155 99.2642 41.5081C98.9734 41.8665 98.9905 42.481 98.6826 42.8394C98.3747 43.1978 97.793 43.3002 97.4851 43.6416C97.1771 43.983 97.0745 44.5291 96.7495 44.8534C96.4073 45.1948 96.1678 45.6215 95.8257 45.9117C95.4493 46.236 95.2782 46.8163 94.919 47.0723C94.5084 47.3454 93.8926 47.3113 93.4991 47.4649C93.0372 47.6526 92.5582 48.0793 92.1134 48.0793L92.1305 48.0964ZM95.2269 38.2139C94.8848 38.6235 94.5769 38.999 94.2689 39.3745C93.9439 39.8012 93.1398 39.8183 92.8661 40.2109C92.5411 40.6547 92.8319 41.4398 92.5753 41.8324C92.2845 42.3103 91.3265 42.3615 91.1383 42.7711C90.8817 43.3173 91.2923 43.983 91.2238 44.3926C91.1383 45.0071 90.9843 45.5191 91.3436 45.8263C91.7028 46.1336 92.37 46.3725 92.9517 46.1336C93.328 45.9799 93.482 45.246 93.961 44.8705C94.3031 44.5974 94.7821 44.4097 95.1927 44.0342C95.5178 43.7099 96.0139 43.488 96.3731 43.0954C96.6982 42.7541 96.9719 42.3273 97.314 41.9177C97.6219 41.5593 98.0838 41.2862 98.426 40.8765C98.7852 40.4328 99.1616 40.0231 99.4866 39.6306C99.8459 39.1697 99.6919 38.4017 99.9827 37.992C100.325 37.5141 100.701 37.1215 100.958 36.7119C101.266 36.1828 101.762 35.8414 101.933 35.4147C102.155 34.8856 102.446 34.476 102.48 34.1517C102.532 33.4177 102.138 32.8886 101.984 32.7521C101.813 32.6155 101.283 32.5643 100.599 32.7521C100.291 32.8374 100.085 33.2641 99.6235 33.5884C99.2471 33.8444 98.6313 33.9127 98.1694 34.3394C97.8101 34.6637 97.4166 35.0392 97.0061 35.483C96.6639 35.8414 96.2876 36.251 95.9112 36.6778C95.5862 37.0703 95.723 37.5994 95.3638 38.0432C95.3467 38.231 95.2611 38.248 95.2611 38.248L95.2269 38.2139ZM31.9302 48.0964C31.4854 48.0964 30.8867 47.9599 30.4248 47.7721C30.0313 47.6014 29.8945 46.8163 29.4839 46.5432C29.1246 46.2872 28.3377 46.5432 27.9785 46.2018C27.6363 45.9117 27.8416 45.0071 27.5166 44.6657C27.1915 44.3414 26.4388 44.4267 26.1309 44.0683C25.823 43.7099 25.7545 43.1637 25.4637 42.8053C25.1729 42.4468 25.0189 41.9689 24.711 41.6105C24.4031 41.235 23.6674 41.2179 23.3937 40.8595C23.0858 40.4669 22.9489 39.989 22.6752 39.6306C22.3844 39.238 22.2818 38.743 22.0423 38.3675C21.7685 37.9408 21.4606 37.5994 21.2382 37.2239C20.9987 36.7802 20.9474 36.3023 20.7934 35.9097C20.571 35.3635 20.4855 34.9027 20.4171 34.4247C20.3486 33.8444 19.8183 33.247 19.9894 32.7862C20.1605 32.2912 20.6395 31.8133 21.0671 31.4549L21.2382 31.6768C21.683 31.3183 22.1449 31.3183 22.6581 31.25C23.1713 31.1818 23.5135 31.3013 24.0609 31.489C24.5057 31.6426 25.0531 31.6256 25.5492 31.9499C25.8914 32.1888 26.4559 32.24 26.8323 32.5814C27.1573 32.8545 27.26 33.4348 27.6192 33.7932C27.9271 34.1004 28.218 34.4418 28.543 34.8173C28.8338 35.1416 29.1418 35.5 29.4497 35.8755C29.7405 36.2169 30.4419 36.234 30.7669 36.6095C31.0749 36.985 30.8525 37.8043 31.1604 38.1798C31.4683 38.5553 31.6394 39.0332 31.9302 39.4257C32.2211 39.8183 32.8369 40.0061 33.0935 40.3986C33.3672 40.8253 33.2817 41.4227 33.5041 41.8324C33.7436 42.2932 34.2055 42.5834 34.3766 43.0271C34.5476 43.5221 34.8042 43.9659 34.8556 44.4267C34.9069 44.9388 35.1635 45.5874 34.9924 46.0141C34.8213 46.4408 34.2055 46.731 33.7778 47.0723C33.2133 47.5332 32.5632 48.0793 31.9473 48.0793L31.9302 48.0964ZM23.0003 33.0764C22.6239 33.0764 22.6581 33.1446 22.5384 33.247L22.1278 32.7521C21.9567 32.8886 22.1962 33.3324 22.2475 34.0492C22.2647 34.3735 21.5975 34.9539 21.8028 35.483C21.9738 35.9097 22.7608 36.1316 23.0858 36.6607C23.3424 37.0874 23.3595 37.7018 23.7017 38.1968C23.9925 38.6065 24.1636 39.1697 24.5228 39.6135C24.8307 40.0231 25.6177 40.0914 25.9769 40.5352C26.3191 40.9448 26.5072 41.4398 26.8152 41.7982C27.1573 42.2079 27.3626 42.7028 27.6705 43.0442C28.0469 43.4368 28.4575 43.744 28.7825 44.0683C29.1931 44.4609 29.4668 44.9217 29.8089 45.1948C30.2879 45.5703 30.7498 45.8946 31.1262 46.0482C31.7078 46.2701 32.0671 45.741 32.4263 45.4508C32.7856 45.1436 32.9225 44.9729 32.8198 44.3585C32.7514 43.9488 32.8711 43.4197 32.6145 42.8735C32.4263 42.4809 32.3579 41.9177 32.05 41.4569C31.8105 41.0643 31.571 40.6035 31.263 40.1597C30.9893 39.7671 30.459 39.5281 30.1169 39.1014C29.826 38.7259 29.2786 38.5211 28.9365 38.0944C28.5601 37.6506 28.4746 37.0191 28.1495 36.6265C27.7732 36.1828 27.4139 35.7561 27.0718 35.3976C26.6612 34.9539 26.2848 34.5613 25.9256 34.237C25.4808 33.8103 24.7452 33.9127 24.3688 33.6396C23.6332 33.1446 23.3595 33.0422 23.0003 33.0422V33.0764ZM61.1836 46.2018C60.6704 46.2018 60.0545 46.0482 59.661 45.8434C59.2676 45.6386 59.2676 44.8364 58.9596 44.4609C58.6859 44.1195 57.8819 44.0342 57.6766 43.5733C57.5055 43.1637 58.1043 42.4639 57.9674 41.986C57.8477 41.5593 57.1634 41.235 57.0778 40.7571C56.9923 40.3133 57.266 39.8012 57.1976 39.3233C57.1292 38.8454 57.3002 38.4016 57.266 37.9237C57.2318 37.4458 56.6502 37.0362 56.633 36.5583C56.6159 36.0804 56.7699 35.6195 56.7699 35.1416C56.7699 34.6637 56.9581 34.2029 56.9581 33.725C56.9581 33.247 56.8726 32.7862 56.8897 32.3253C56.9068 31.8645 57.0778 31.3866 57.0949 30.9257C57.112 30.4649 57.1805 29.987 57.2147 29.5262C57.2489 29.0653 56.7186 28.5191 56.7699 28.0754C56.8212 27.5974 56.9923 27.1366 57.0778 26.6928C57.1634 26.2149 57.5397 25.8053 57.6595 25.3786C57.7963 24.9007 58.1214 24.5422 58.3096 24.1497C58.5148 23.6888 58.7543 23.3816 59.0281 23.0402C59.336 22.6647 59.4557 22.1868 59.8663 21.982C60.2769 21.7772 60.6875 21.3846 61.2007 21.3846C61.7139 21.3846 62.1245 21.8284 62.5179 22.0332C62.9114 22.238 63.2364 22.5282 63.5444 22.9208C63.8181 23.2621 64.0234 23.6547 64.2287 24.0985C64.3997 24.5081 65.0669 24.7812 65.1867 25.2591C65.3064 25.6858 64.7419 26.3003 64.8274 26.7782C64.9129 27.2219 64.8274 27.6828 64.8787 28.1607C64.93 28.6386 65.3748 29.0312 65.409 29.5091C65.4433 29.987 65.1011 30.4478 65.1182 30.9257C65.1353 31.4037 65.4433 31.8474 65.4604 32.3253C65.4775 32.8033 65.6143 33.2641 65.6143 33.742C65.6143 34.2199 65.9736 34.6808 65.9565 35.1587C65.9394 35.6366 65.5972 36.0974 65.5801 36.5583C65.563 37.0191 65.5459 37.5141 65.5117 37.9749C65.4775 38.4358 65.084 38.8796 65.0327 39.3404C64.9814 39.8183 65.4946 40.3645 65.4262 40.8083C65.3406 41.2862 65.238 41.7812 65.1182 42.2079C64.9814 42.6858 64.28 42.9418 64.0918 43.3514C63.8865 43.8123 63.7496 44.2048 63.4759 44.5462C63.168 44.9217 63.0483 45.5362 62.6377 45.7239C62.2271 45.9117 61.6968 46.2189 61.1836 46.2189V46.2018ZM61.1836 23.723C60.7388 23.723 60.6532 23.7912 60.3111 24.235C60.0716 24.5422 59.336 24.6617 59.1478 25.2079C59.011 25.6005 59.5413 26.2149 59.4386 26.744C59.3531 27.1707 58.4806 27.5121 58.4293 28.0242C58.378 28.4679 58.9254 28.997 58.8912 29.492C58.857 29.9358 58.4977 30.3796 58.4806 30.8745C58.4635 31.3354 58.2582 31.7962 58.2411 32.2912C58.2411 32.7521 58.7886 33.23 58.7886 33.725C58.7886 34.2199 58.6175 34.6808 58.6346 35.1416C58.6346 35.6366 58.4635 36.1145 58.4806 36.5753C58.4977 37.0703 58.6175 37.5482 58.6517 37.992C58.6859 38.487 58.5662 38.982 58.6175 39.4257C58.6859 39.9378 58.7201 40.4157 58.8057 40.8424C58.9083 41.3545 59.5926 41.6617 59.7124 42.0543C59.8834 42.5834 59.969 42.9759 60.1914 43.3002C60.5335 43.7611 60.7388 44.1707 61.1836 44.1707C61.6284 44.1707 62.2442 44.0342 62.5693 43.5733C62.8088 43.2661 63.0996 42.7882 63.2706 42.2591C63.4075 41.8665 63.2535 41.3033 63.3562 40.7912C63.4417 40.3645 63.2193 39.8524 63.2878 39.3575C63.3391 38.9137 63.7325 38.487 63.7668 37.992C63.801 37.5482 63.8523 37.0703 63.8694 36.5753C63.8865 36.1145 63.9207 35.6537 63.9207 35.1587C63.9207 34.6978 63.4075 34.2199 63.4075 33.725C63.4075 33.23 64.0918 32.7521 64.0747 32.2912C64.0747 31.7962 64.1944 31.3013 64.1773 30.8575C64.1602 30.3625 63.7154 29.9017 63.6812 29.4579C63.647 28.9629 63.972 28.4509 63.9036 28.0071C63.8352 27.495 63.4588 27.0683 63.3904 26.6416C63.2878 26.1296 63.0312 25.7029 62.8943 25.3103C62.7232 24.7812 62.2271 24.5764 62.0047 24.2691C61.6626 23.8083 61.6113 23.74 61.1665 23.74L61.1836 23.723Z" fill="#091C4C"/>
</svg>
