<svg width="32" height="22" viewBox="0 0 32 22" fill="none" xmlns="http://www.w3.org/2000/svg">
<path d="M4.97619e-05 6.63648C-0.00464365 6.43935 0.323894 6.57547 0.464696 6.43936C0.605499 6.30325 0.586728 6.27979 0.72753 6.14368C0.868332 6.00757 0.863638 6.00287 1.00913 5.86676C1.15463 5.73065 1.15463 5.73535 1.29543 5.59924C1.43623 5.46313 1.44093 5.46782 1.58642 5.33641C1.73192 5.20499 1.61928 5.08765 1.76008 4.95155C1.90089 4.81544 1.98067 4.89992 2.12147 4.76381C2.26227 4.6277 2.1731 4.52914 2.3139 4.39773C2.4547 4.26631 2.47347 4.28039 2.61897 4.14428C2.76447 4.00817 2.80201 4.04572 2.94282 3.90961C3.08362 3.7735 3.07893 3.76412 3.21973 3.62801C3.36054 3.4919 3.46848 3.60454 3.60928 3.46843C3.75008 3.33232 3.62806 3.2009 3.76886 3.06479C3.90966 2.92868 3.94721 2.96623 4.09271 2.83012C4.2382 2.69401 4.27575 2.73626 4.41655 2.60015C4.55735 2.46404 4.57143 2.47343 4.71693 2.34201C4.86242 2.2106 4.89059 2.23875 5.03608 2.10265C5.18158 1.96654 5.11118 1.89614 5.25667 1.76003C5.40217 1.62392 5.32238 1.53944 5.46318 1.40333C5.60399 1.26722 5.61337 1.27661 5.75886 1.1405C5.90436 1.00439 5.92783 1.02785 6.07332 0.891745C6.21882 0.755636 6.22351 0.76033 6.36901 0.624221C6.5145 0.488112 6.5896 0.563207 6.7304 0.427098C6.87121 0.29099 6.77264 0.126722 6.96038 0.0516278C7.14811 -0.0234668 7.18566 0.197122 7.38279 0.197122C7.57991 0.197122 7.5846 0 7.78172 0C7.97885 0 7.98354 0.164269 8.18067 0.164269C8.37779 0.164269 8.38248 0.00469083 8.5843 0.00469083C8.78612 0.00469083 8.78612 0.215896 8.98793 0.215896C9.18975 0.215896 9.18975 0.0750927 9.39157 0.0750927C9.59338 0.0750927 9.59338 0.0657075 9.7952 0.0657075C9.99702 0.0657075 9.99702 0.0281593 10.1988 0.0281593C10.4007 0.0281593 10.4006 0.0703983 10.5978 0.0703983C10.7949 0.0703983 10.7996 0.0516278 10.9967 0.0516278C11.1938 0.0516278 11.1985 0.215896 11.3957 0.215896C11.5928 0.215896 11.5975 0.0844815 11.7946 0.0844815C11.9917 0.0844815 11.9964 0.145495 12.1935 0.145495C12.3907 0.145495 12.3954 0.0375446 12.5972 0.0375446C12.799 0.0375446 12.799 0.211202 13.0008 0.211202C13.2026 0.211202 13.2026 0.061013 13.4044 0.061013C13.6063 0.061013 13.6063 0.15488 13.8081 0.15488C14.0099 0.15488 14.0099 0.0375446 14.2117 0.0375446C14.4135 0.0375446 14.4135 0.173654 14.6153 0.173654C14.8172 0.173654 14.8172 0.159574 15.019 0.159574C15.2208 0.159574 15.2208 0.0703983 15.4226 0.0703983C15.6244 0.0703983 15.6244 0.220587 15.8262 0.220587C16.0281 0.220587 16.028 0.220587 16.2299 0.220587C16.4317 0.220587 16.4317 0.0750927 16.6335 0.0750927C16.8353 0.0750927 16.8353 0.0234649 17.0371 0.0234649C17.2389 0.0234649 17.2389 0.201817 17.4408 0.201817C17.6426 0.201817 17.6426 0.0797871 17.8444 0.0797871C18.0462 0.0797871 18.0462 0.0938668 18.248 0.0938668C18.4499 0.0938668 18.4499 0.150189 18.6517 0.150189C18.8535 0.150189 18.8535 0.0375446 19.0553 0.0375446C19.2571 0.0375446 19.2571 0.150189 19.4589 0.150189C19.6608 0.150189 19.6608 0.0750927 19.8626 0.0750927C20.0644 0.0750927 20.0644 0.150189 20.2662 0.150189C20.468 0.150189 20.468 0.107946 20.6698 0.107946C20.8717 0.107946 20.8717 0.187734 21.0735 0.187734C21.2753 0.187734 21.2753 0.0234649 21.4771 0.0234649C21.6789 0.0234649 21.6789 0.0375446 21.8807 0.0375446C22.0826 0.0375446 22.0826 0.0281593 22.2844 0.0281593C22.4862 0.0281593 22.4862 0.159574 22.688 0.159574C22.8898 0.159574 22.8898 0.239361 23.0916 0.239361C23.2935 0.239361 23.2935 0.136109 23.4953 0.136109C23.6971 0.136109 23.6971 0.0281593 23.8989 0.0281593C24.1007 0.0281593 24.1007 0.0375446 24.3025 0.0375446C24.5044 0.0375446 24.5044 0.197122 24.7109 0.197122C24.9174 0.197122 24.8892 0.145493 25.0769 0.220587C25.2647 0.295682 25.2835 0.234671 25.4243 0.37078C25.5651 0.506889 25.4712 0.610142 25.612 0.746251C25.7528 0.882359 25.8889 0.741559 26.0344 0.872975C26.1799 1.00439 26.1424 1.04193 26.2878 1.17804C26.4333 1.31415 26.3395 1.40802 26.485 1.53944C26.6305 1.67085 26.7666 1.53005 26.9074 1.66147C27.0482 1.79288 27.0012 1.84451 27.1467 1.98062C27.2922 2.11672 27.2359 2.17305 27.3814 2.30446C27.5269 2.43588 27.4753 2.4922 27.6208 2.62362C27.7663 2.75503 27.771 2.75503 27.9165 2.89114C28.062 3.02725 28.1277 2.95685 28.2732 3.08826C28.4187 3.21968 28.3905 3.25253 28.5313 3.38864C28.6721 3.52475 28.7143 3.48251 28.8551 3.61862C28.9959 3.75473 28.9772 3.7782 29.1227 3.91431C29.2682 4.05042 29.3526 3.95654 29.4981 4.09265C29.6436 4.22876 29.5169 4.36018 29.6624 4.49628C29.8079 4.63239 29.8408 4.59485 29.9863 4.73096C30.1318 4.86706 30.066 4.93277 30.2115 5.06888C30.357 5.20499 30.357 5.20499 30.4978 5.3411C30.6386 5.47721 30.7747 5.3411 30.9156 5.47251C31.0564 5.60393 30.9953 5.67902 31.1408 5.81513C31.2863 5.95124 31.2769 5.96063 31.4177 6.10143C31.5585 6.24223 31.6571 6.13898 31.8026 6.27978C31.9481 6.42058 32.0044 6.43935 31.9997 6.63648C31.995 6.8336 31.8495 6.75381 31.6994 6.88523C31.5492 7.01664 31.5492 7.01665 31.399 7.14807C31.2488 7.27948 31.291 7.32641 31.1408 7.45782C30.9906 7.58924 31.0141 7.61741 30.8686 7.74882C30.7231 7.88024 30.6433 7.79106 30.4931 7.92717C30.343 8.06327 30.3805 8.10083 30.2303 8.23224C30.0801 8.36366 30.0144 8.29326 29.8689 8.42467C29.7234 8.55609 29.8455 8.70158 29.7 8.833C29.5545 8.96441 29.3996 8.79545 29.2494 8.93156C29.0992 9.06767 29.1274 9.09583 28.9772 9.23193C28.827 9.36804 28.9209 9.4713 28.7754 9.60741C28.6299 9.74352 28.5923 9.70128 28.4421 9.8327C28.2919 9.96411 28.3013 9.97819 28.1511 10.1096C28.0009 10.241 27.9118 10.1425 27.7616 10.2739C27.6114 10.4053 27.71 10.5179 27.5598 10.654C27.4096 10.7902 27.3626 10.7338 27.2125 10.8652C27.0623 10.9967 27.1374 11.0858 26.9872 11.2173C26.837 11.3487 26.7525 11.2548 26.6023 11.3862C26.4521 11.5176 26.4991 11.5693 26.3489 11.7054C26.1987 11.8415 26.2128 11.8509 26.0626 11.9823C25.9124 12.1137 25.9265 12.1325 25.7763 12.2639C25.6261 12.3953 25.5416 12.3014 25.3914 12.4375C25.2412 12.5736 25.2459 12.5783 25.0957 12.7098C24.9455 12.8412 24.9221 12.8177 24.7719 12.9538C24.6217 13.0899 24.7109 13.1885 24.5607 13.3199C24.4105 13.4513 24.3776 13.4138 24.2274 13.5499C24.0773 13.686 24.0726 13.6766 23.9224 13.8127C23.7722 13.9488 23.8238 14.0051 23.6736 14.1366C23.5234 14.268 23.5187 14.268 23.3685 14.3994C23.2184 14.5308 23.2043 14.5167 23.0541 14.6528C22.9039 14.7889 22.8429 14.7185 22.6927 14.8546C22.5425 14.9908 22.5143 14.9579 22.3642 15.0893C22.214 15.2207 22.2891 15.3099 22.1389 15.4413C21.9887 15.5727 21.9887 15.5774 21.8432 15.7088C21.6977 15.8403 21.6695 15.8168 21.524 15.9482C21.3785 16.0796 21.3175 16.0139 21.1673 16.15C21.0171 16.2861 21.0641 16.3331 20.9139 16.4692C20.7637 16.6053 20.7262 16.5583 20.5713 16.6898C20.4164 16.8212 20.515 16.9338 20.3648 17.0652C20.2146 17.1967 20.116 17.0887 19.9658 17.2201C19.8156 17.3515 19.9142 17.4642 19.7593 17.5956C19.6044 17.727 19.5012 17.6097 19.351 17.7411C19.2008 17.8725 19.2524 17.9335 19.1022 18.0696C18.952 18.2057 18.9943 18.2527 18.8441 18.3888C18.6939 18.5249 18.6376 18.4639 18.4874 18.5953C18.3372 18.7267 18.2715 18.661 18.1213 18.7924C17.9711 18.9238 17.9805 18.9379 17.8303 19.074C17.6801 19.2101 17.8069 19.3509 17.652 19.4823C17.4971 19.6138 17.3844 19.4823 17.2343 19.6185C17.0841 19.7546 17.1216 19.7968 16.9714 19.9329C16.8212 20.069 16.8259 20.0784 16.6757 20.2098C16.5256 20.3412 16.488 20.3037 16.3331 20.4398C16.1782 20.5759 16.2768 20.7636 16.075 20.7683C15.8732 20.773 15.9811 20.5665 15.8309 20.4351C15.6807 20.3037 15.5822 20.4163 15.432 20.2802C15.2818 20.1441 15.3428 20.0831 15.1926 19.947C15.0424 19.8109 15.0753 19.778 14.9251 19.6466C14.7749 19.5152 14.7186 19.5809 14.5684 19.4448C14.4182 19.3087 14.498 19.2242 14.3478 19.0928C14.1976 18.9614 14.1835 18.9802 14.0334 18.844C13.8832 18.7079 13.8738 18.7267 13.7236 18.5906C13.5734 18.4545 13.6156 18.4123 13.4654 18.2808C13.3153 18.1494 13.1651 18.3184 13.0149 18.1823C12.8647 18.0462 12.921 17.9851 12.7708 17.849C12.6206 17.7129 12.6817 17.6472 12.5315 17.5111C12.3813 17.375 12.3531 17.4125 12.2029 17.2764C12.0527 17.1403 12.0199 17.1779 11.8697 17.0465C11.7195 16.9151 11.7477 16.8822 11.5975 16.7508C11.4473 16.6194 11.4801 16.5818 11.3299 16.4504C11.1798 16.319 11.1047 16.3988 10.9545 16.2674C10.8043 16.1359 10.8747 16.0515 10.7292 15.92C10.5837 15.7886 10.4757 15.906 10.3256 15.7745C10.1754 15.6431 10.1707 15.6478 10.0205 15.5164C9.87029 15.385 9.90315 15.3475 9.75296 15.2113C9.60277 15.0752 9.56522 15.1175 9.41504 14.9861C9.26485 14.8546 9.35871 14.7467 9.20852 14.6153C9.05834 14.4839 8.99263 14.5543 8.84244 14.4182C8.69225 14.282 8.65939 14.3196 8.5092 14.1882C8.35901 14.0568 8.49982 13.8925 8.34963 13.7611C8.19944 13.6297 8.07741 13.7658 7.92723 13.6344C7.77704 13.5029 7.86621 13.3997 7.71602 13.2636C7.56583 13.1275 7.59399 13.0993 7.4438 12.9679C7.29362 12.8365 7.2326 12.9022 7.08241 12.7708C6.93222 12.6394 6.91814 12.6487 6.76795 12.5173C6.61776 12.3859 6.56613 12.4422 6.41595 12.3061C6.26576 12.17 6.26576 12.1747 6.11557 12.0433C5.96538 11.9119 6.06394 11.7992 5.91375 11.6678C5.76356 11.5364 5.78703 11.5129 5.63684 11.3768C5.48665 11.2407 5.47726 11.2548 5.32707 11.1234C5.17688 10.992 5.1628 11.006 5.01261 10.8746C4.86242 10.7432 4.89528 10.701 4.74509 10.5696C4.5949 10.4381 4.52919 10.5085 4.379 10.3771C4.22881 10.2457 4.14902 10.3302 3.99883 10.1988C3.84865 10.0674 3.85803 10.0533 3.70785 9.92187C3.55766 9.79045 3.61398 9.72005 3.46379 9.58864C3.3136 9.45722 3.34176 9.42437 3.19157 9.28826C3.04138 9.15215 3.01792 9.18031 2.86773 9.0442C2.71754 8.90809 2.77855 8.83769 2.62836 8.70627C2.47817 8.57486 2.48756 8.56078 2.33737 8.42467C2.18718 8.28856 2.16371 8.31672 2.01352 8.18061C1.86333 8.04451 1.88211 8.02573 1.73192 7.88962C1.58173 7.75351 1.4597 7.88962 1.30951 7.7582C1.15932 7.62679 1.26258 7.50477 1.11239 7.36866C0.9622 7.23255 0.915267 7.28417 0.765078 7.14807C0.614889 7.01196 0.652434 6.93686 0.469391 6.84769C0.230027 6.73505 0.0422913 6.82891 0.0375979 6.6271L4.97619e-05 6.63648Z" fill="#091C4C"/>
<path d="M8.39179 6.44855C8.49834 6.44855 8.55345 6.45219 8.60621 6.45587C8.65433 6.45923 8.70031 6.46249 8.79552 6.46249C8.90958 6.46249 8.97039 6.47227 9.02598 6.48132C9.07129 6.4887 9.11153 6.49562 9.19926 6.49562C9.35254 6.49564 9.43887 6.55134 9.4984 6.5901C9.53971 6.617 9.5543 6.62704 9.60265 6.62706C9.65661 6.62706 9.67426 6.61618 9.71492 6.59254C9.77515 6.55752 9.85855 6.50957 10.0064 6.50956C10.128 6.50956 10.1946 6.52612 10.2525 6.54094C10.2955 6.55192 10.33 6.56116 10.4101 6.56116C10.4827 6.56115 10.5118 6.55046 10.5531 6.53606C10.6126 6.51528 10.6845 6.49075 10.8135 6.49073C10.9861 6.49073 11.0806 6.57886 11.1353 6.62845C11.1815 6.67037 11.1882 6.67377 11.2173 6.67378C11.2712 6.67378 11.2888 6.66291 11.3295 6.63926C11.3897 6.60425 11.4732 6.55663 11.621 6.55663C11.6861 6.55662 11.7102 6.54487 11.7507 6.52699C11.8111 6.5003 11.8881 6.46737 12.0247 6.46737C12.165 6.4674 12.2442 6.5051 12.3047 6.53466C12.345 6.55436 12.3668 6.56603 12.4281 6.56604C12.5083 6.56604 12.5428 6.55646 12.5857 6.54547C12.6437 6.53065 12.7102 6.51409 12.8319 6.51409C12.9177 6.51409 12.9563 6.50671 13.001 6.4984C13.0572 6.48794 13.1196 6.47679 13.2356 6.47679C13.342 6.47679 13.3969 6.48043 13.4497 6.48411C13.4978 6.48747 13.5438 6.49073 13.639 6.49073C13.7267 6.49073 13.767 6.48416 13.8123 6.47679C13.8679 6.46774 13.9287 6.45796 14.0427 6.45796C14.2253 6.45796 14.3225 6.56518 14.3736 6.61869C14.4234 6.6708 14.4273 6.66924 14.4465 6.66924C14.5417 6.66924 14.5876 6.66598 14.6358 6.66262C14.6885 6.65894 14.7434 6.65495 14.8499 6.65495C14.9395 6.65495 14.9813 6.64916 15.0273 6.64275C15.0822 6.63509 15.1415 6.62706 15.2536 6.62706C15.3039 6.62706 15.3195 6.6166 15.3606 6.5908C15.4204 6.55324 15.5059 6.50015 15.6573 6.50015C15.8033 6.50016 15.8856 6.54559 15.946 6.57929C15.9865 6.60191 16.0053 6.61276 16.0611 6.61276C16.1486 6.61275 16.1887 6.60618 16.234 6.59882C16.2896 6.58977 16.3504 6.57999 16.4645 6.57999C16.5203 6.57999 16.539 6.56879 16.5795 6.54617C16.6399 6.51248 16.7223 6.46737 16.8682 6.46737C17.0122 6.46738 17.0936 6.50999 17.1541 6.54233C17.1945 6.56395 17.2143 6.57511 17.2719 6.57511C17.3915 6.57512 17.4565 6.59001 17.5139 6.60335C17.5574 6.61346 17.5933 6.62217 17.6753 6.62218C17.8026 6.62218 17.8734 6.64438 17.9326 6.66367C17.9743 6.67722 18.0046 6.68807 18.0791 6.68807C18.1132 6.68807 18.1217 6.68248 18.1662 6.64519C18.2225 6.59808 18.3152 6.51897 18.4828 6.51897C18.6409 6.519 18.7307 6.58275 18.79 6.62496C18.8344 6.65665 18.8462 6.66434 18.8862 6.66436C18.9676 6.66436 19.005 6.65657 19.0494 6.64728C19.1059 6.63545 19.1697 6.62218 19.2854 6.62218C19.3877 6.62218 19.4413 6.62464 19.4932 6.62706C19.5421 6.62933 19.5896 6.63159 19.6843 6.63159C19.7541 6.63159 19.783 6.62106 19.8248 6.60649C19.8838 6.58589 19.956 6.56117 20.0831 6.56116C20.1702 6.56116 20.2119 6.55541 20.2581 6.54896C20.3128 6.54134 20.3721 6.53293 20.482 6.53292C20.6148 6.53292 20.6908 6.56408 20.7504 6.58905C20.7917 6.60631 20.8169 6.61764 20.8812 6.61764C21.0044 6.61766 21.0738 6.638 21.1322 6.65565C21.1747 6.6685 21.2063 6.67866 21.28 6.67866C21.3632 6.67865 21.4018 6.67098 21.4467 6.66262C21.5026 6.65221 21.5651 6.64101 21.6789 6.641C21.7356 6.641 21.756 6.62994 21.7971 6.60893C21.8569 6.57833 21.9374 6.53783 22.0777 6.5378C22.1877 6.5378 22.2472 6.54586 22.3019 6.55349C22.3481 6.55994 22.3898 6.56604 22.4769 6.56604C22.5392 6.56603 22.5631 6.55456 22.6042 6.53641C22.664 6.51 22.7411 6.47679 22.8758 6.47679C22.9782 6.47679 23.0305 6.47925 23.0819 6.48167C23.1301 6.48394 23.1775 6.4862 23.2747 6.4862C23.3775 6.4862 23.4295 6.48745 23.4807 6.48864C23.5304 6.4898 23.5794 6.49073 23.6784 6.49073C23.7848 6.49074 23.8398 6.49473 23.8925 6.4984C23.9406 6.50176 23.9866 6.50503 24.0818 6.50503C24.1714 6.50503 24.2133 6.49889 24.2593 6.49248C24.3141 6.48482 24.3735 6.47679 24.4855 6.47679C24.6147 6.47679 24.6867 6.50098 24.7463 6.52176C24.7876 6.53617 24.8167 6.54722 24.8893 6.54722C24.9694 6.54721 25.0039 6.53798 25.0469 6.52699C25.1048 6.51217 25.1714 6.49562 25.293 6.49562C25.3919 6.49561 25.441 6.49433 25.4907 6.49317C25.5418 6.49199 25.5938 6.49073 25.6964 6.49073C25.77 6.49073 25.8321 6.50428 25.8871 6.52804C25.9389 6.55046 25.9791 6.57998 26.0029 6.59707C26.0296 6.61634 26.0401 6.62324 26.0513 6.6281C26.0594 6.63159 26.0729 6.63612 26.1001 6.63612C26.1765 6.63612 26.2084 6.62617 26.2504 6.61346C26.3092 6.59567 26.3785 6.57511 26.5039 6.57511C26.5915 6.5751 26.6315 6.56853 26.6768 6.56116C26.7324 6.55211 26.7933 6.54234 26.9073 6.54233C27.0477 6.54233 27.127 6.58005 27.1876 6.60962C27.2279 6.62933 27.2496 6.641 27.311 6.641C27.3761 6.641 27.4002 6.62959 27.4407 6.61172C27.5011 6.58501 27.5781 6.55175 27.7147 6.55175C27.7892 6.55174 27.8195 6.54125 27.8612 6.52769C27.9204 6.50841 27.9909 6.48622 28.1181 6.4862C28.2473 6.4862 28.3193 6.51039 28.3789 6.53118C28.4202 6.54559 28.4492 6.55662 28.5219 6.55663C28.6491 6.55663 28.7199 6.57883 28.7792 6.59812C28.8208 6.61166 28.8512 6.62218 28.9256 6.62218C28.9528 6.62217 28.9663 6.61764 28.9744 6.61416C28.9856 6.6093 28.9962 6.60238 29.0229 6.58313C29.0466 6.56603 29.0868 6.53651 29.1386 6.51409C29.1936 6.49034 29.2558 6.47679 29.3293 6.47679C29.4844 6.47683 29.5717 6.53517 29.6309 6.57511C29.6726 6.60319 29.6862 6.61275 29.7327 6.61276C29.7978 6.61276 29.822 6.60134 29.8624 6.58348C29.9229 6.55677 29.9998 6.52351 30.1365 6.52351C30.2411 6.52351 30.2947 6.52597 30.3467 6.52839C30.3956 6.53066 30.4431 6.53292 30.5402 6.53292C30.6387 6.53298 30.7187 6.61293 30.7187 6.71143C30.7187 6.80998 30.6387 6.88988 30.5402 6.88994C30.4355 6.88994 30.382 6.88748 30.33 6.88506C30.2811 6.88278 30.2336 6.88053 30.1365 6.88053C30.0713 6.88053 30.0472 6.89228 30.0068 6.91016C29.9463 6.93686 29.8694 6.96978 29.7327 6.96978C29.5776 6.96976 29.4904 6.91106 29.4311 6.87111C29.3896 6.8431 29.3758 6.83383 29.3293 6.83381C29.302 6.83381 29.2882 6.83833 29.2802 6.84183C29.269 6.84669 29.2584 6.85361 29.2317 6.87286C29.208 6.88995 29.1681 6.91949 29.1163 6.94189C29.0613 6.96567 28.9992 6.97919 28.9256 6.97919C28.7985 6.97919 28.7279 6.95698 28.6686 6.93771C28.627 6.92414 28.5964 6.91365 28.5219 6.91365C28.3928 6.91364 28.321 6.8891 28.2614 6.86832C28.2201 6.85391 28.1908 6.84322 28.1181 6.84322C28.0437 6.84324 28.0133 6.85372 27.9717 6.86728C27.9125 6.88656 27.8419 6.90876 27.7147 6.90877C27.6496 6.90877 27.6255 6.9202 27.585 6.93805C27.5246 6.96476 27.4477 6.99802 27.311 6.99802C27.1707 6.99802 27.0916 6.96029 27.031 6.93073C26.9907 6.91103 26.9687 6.89935 26.9073 6.89935C26.8197 6.89936 26.7796 6.90628 26.7343 6.91365C26.6787 6.9227 26.6179 6.93212 26.5039 6.93213C26.4275 6.93213 26.3956 6.94242 26.3536 6.95514C26.2947 6.97293 26.2255 6.99314 26.1001 6.99314C26.0265 6.99314 25.9644 6.97962 25.9094 6.95583C25.8576 6.93343 25.8177 6.9039 25.794 6.8868C25.7673 6.86755 25.7568 6.86063 25.7456 6.85577C25.7375 6.85228 25.7237 6.84775 25.6964 6.84775C25.5974 6.84775 25.5484 6.84904 25.4987 6.85019C25.4475 6.85138 25.3956 6.85263 25.293 6.85263C25.2129 6.85263 25.1783 6.86188 25.1354 6.87286C25.0775 6.88768 25.0109 6.90423 24.8893 6.90423C24.7601 6.90423 24.6881 6.87969 24.6285 6.85891C24.5872 6.84452 24.5581 6.83381 24.4855 6.83381C24.396 6.83381 24.3544 6.8396 24.3084 6.84601C24.2535 6.85367 24.194 6.86205 24.0818 6.86205C23.9753 6.86204 23.9204 6.85806 23.8677 6.85438C23.8196 6.85102 23.7736 6.84775 23.6784 6.84775C23.5756 6.84775 23.5236 6.8465 23.4723 6.84531C23.4227 6.84416 23.3737 6.84322 23.2747 6.84322C23.1701 6.84322 23.1166 6.84076 23.0651 6.83834C23.0167 6.83606 22.9705 6.83381 22.8758 6.83381C22.8135 6.83381 22.7896 6.84495 22.7485 6.86309C22.6888 6.8895 22.6116 6.92304 22.4769 6.92306C22.367 6.92306 22.3074 6.91466 22.2528 6.90702C22.2066 6.90058 22.1649 6.89482 22.0777 6.89482C22.0211 6.89484 22.0006 6.90589 21.9595 6.9269C21.8997 6.95749 21.8192 6.99802 21.6789 6.99802C21.5957 6.99802 21.5571 7.00536 21.5122 7.01371C21.4563 7.02412 21.3938 7.03567 21.28 7.03568C21.1567 7.03568 21.0874 7.01497 21.029 6.99732C20.9865 6.98448 20.9549 6.97467 20.8812 6.97466C20.7484 6.97466 20.6724 6.94351 20.6127 6.91853C20.5715 6.90127 20.5462 6.88994 20.482 6.88994C20.3949 6.88995 20.3535 6.89605 20.3073 6.90249C20.2526 6.91012 20.1931 6.91818 20.0831 6.91818C20.0133 6.91819 19.9844 6.92871 19.9426 6.94328C19.8835 6.96388 19.8114 6.9886 19.6843 6.98861C19.5819 6.98861 19.5284 6.98614 19.4765 6.98373C19.4275 6.98145 19.3801 6.9792 19.2854 6.97919C19.204 6.97919 19.1666 6.98734 19.1222 6.99663C19.0657 7.00845 19.0018 7.02138 18.8862 7.02138C18.7295 7.02134 18.6403 6.95668 18.5829 6.91574C18.5401 6.88524 18.5264 6.87601 18.4828 6.87599C18.4486 6.87599 18.4402 6.88154 18.3956 6.91888C18.3394 6.96598 18.2467 7.04509 18.0791 7.04509C17.9518 7.04509 17.8813 7.02253 17.8221 7.00325C17.7804 6.98969 17.7499 6.97919 17.6753 6.97919C17.5557 6.97918 17.4907 6.96429 17.4334 6.95095C17.3899 6.94084 17.3539 6.93214 17.2719 6.93213C17.1278 6.93213 17.0462 6.88952 16.9857 6.85717C16.9453 6.83559 16.9258 6.8244 16.8682 6.82439C16.8125 6.82439 16.7939 6.83531 16.7535 6.85786C16.6931 6.89157 16.6105 6.93701 16.4645 6.93701C16.3769 6.93701 16.3368 6.94359 16.2915 6.95095C16.236 6.96 16.1751 6.96977 16.0611 6.96978C15.9151 6.96978 15.8324 6.92469 15.772 6.89099C15.7315 6.86838 15.7131 6.85717 15.6573 6.85717C15.607 6.85717 15.5914 6.86728 15.5503 6.89308C15.4905 6.93063 15.4051 6.98408 15.2536 6.98408C15.164 6.98408 15.1224 6.98986 15.0765 6.99628C15.0216 7.00394 14.962 7.01197 14.8499 7.01197C14.7547 7.01197 14.7087 7.01523 14.6605 7.01859C14.6078 7.02227 14.5529 7.02626 14.4465 7.02626C14.264 7.02626 14.1667 6.91908 14.1156 6.86553C14.0658 6.81343 14.0619 6.81498 14.0427 6.81498C13.955 6.81498 13.9147 6.82155 13.8694 6.82893C13.8139 6.83797 13.753 6.84775 13.639 6.84775C13.5325 6.84775 13.4776 6.84411 13.4249 6.84043C13.3768 6.83707 13.3308 6.83381 13.2356 6.83381C13.1498 6.83381 13.1108 6.84119 13.0662 6.8495C13.01 6.85995 12.9477 6.87111 12.8319 6.87111C12.7517 6.87111 12.7172 6.88069 12.6743 6.89168C12.6163 6.9065 12.5497 6.92306 12.4281 6.92306C12.2878 6.92304 12.2087 6.88499 12.1482 6.85542C12.1078 6.83573 12.086 6.82441 12.0247 6.82439C11.9597 6.82439 11.9354 6.83582 11.895 6.85368C11.8346 6.88038 11.7576 6.91364 11.621 6.91365C11.567 6.91365 11.5494 6.92452 11.5087 6.94816C11.4485 6.98318 11.365 7.03079 11.2173 7.03079C11.0445 7.03077 10.9501 6.94264 10.8954 6.89308C10.8492 6.85117 10.8426 6.84775 10.8135 6.84775C10.741 6.84777 10.7119 6.8588 10.6706 6.8732C10.611 6.89397 10.5391 6.91817 10.4101 6.91818C10.2885 6.91818 10.2219 6.90162 10.164 6.8868C10.121 6.87581 10.0866 6.86658 10.0064 6.86658C9.95248 6.86658 9.93507 6.87749 9.89447 6.9011C9.83424 6.93612 9.7505 6.98408 9.60265 6.98408C9.44938 6.98404 9.36304 6.928 9.30351 6.88924C9.26222 6.86236 9.24761 6.85265 9.19926 6.85263C9.08528 6.85263 9.02436 6.84285 8.9688 6.83381C8.9235 6.82643 8.88325 6.81951 8.79552 6.81951C8.68897 6.81951 8.63386 6.81587 8.5811 6.81219C8.53301 6.80884 8.48694 6.80557 8.39179 6.80557C8.32108 6.80558 8.29334 6.8168 8.25232 6.83206C8.19248 6.85433 8.11932 6.88051 7.9884 6.88053H7.58466C7.48187 6.88053 7.42983 6.87963 7.3786 6.87843C7.32894 6.87728 7.27992 6.87599 7.18092 6.87599C7.05933 6.87599 6.9927 6.85944 6.93477 6.84462C6.89187 6.83364 6.85729 6.82439 6.77718 6.82439C6.70465 6.82441 6.67553 6.83509 6.63423 6.8495C6.57467 6.87027 6.50286 6.89481 6.37379 6.89482C6.28041 6.89482 6.23571 6.89878 6.18831 6.90319C6.13484 6.90816 6.07842 6.91365 5.97005 6.91365C5.88425 6.91365 5.84561 6.92103 5.80096 6.92934C5.74472 6.9398 5.68229 6.95095 5.56632 6.95095C5.41673 6.95092 5.33243 6.90043 5.2724 6.86414C5.23157 6.83945 5.21496 6.82894 5.16293 6.82893C5.11086 6.82893 5.09422 6.83949 5.05345 6.86414C4.99341 6.90045 4.90888 6.95095 4.75919 6.95095H4.35545C4.28188 6.95094 4.21971 6.93743 4.16474 6.91365C4.11296 6.89123 4.07303 6.8617 4.04933 6.84462C4.02259 6.82534 4.01211 6.81845 4.00087 6.81359C3.99281 6.8101 3.97924 6.80558 3.95206 6.80557C3.91785 6.80557 3.90919 6.81107 3.86455 6.84845C3.80828 6.89556 3.7158 6.97465 3.54832 6.97466C3.4731 6.97466 3.40962 6.95959 3.35377 6.93387C3.30149 6.90979 3.26121 6.87837 3.23767 6.8603C3.21086 6.83973 3.20064 6.83248 3.18991 6.82753C3.18269 6.82421 3.17027 6.81951 3.14458 6.81951C3.0456 6.81951 2.99657 6.8208 2.9469 6.82195C2.8957 6.82314 2.84358 6.82439 2.74085 6.82439C2.65139 6.8244 2.60982 6.83014 2.56303 6.8366C2.50736 6.84428 2.44685 6.85263 2.33258 6.85263C2.22197 6.85263 2.16551 6.84716 2.11188 6.84217C2.06466 6.83778 2.02004 6.83381 1.9243 6.83381C1.89374 6.83381 1.87802 6.83851 1.86887 6.84217C1.85708 6.8469 1.84646 6.85331 1.82006 6.87111C1.79611 6.88726 1.75614 6.91483 1.70431 6.93561C1.64981 6.95746 1.58869 6.96978 1.51603 6.96978C1.41745 6.96978 1.33752 6.88986 1.33752 6.79127C1.33755 6.69271 1.41746 6.61276 1.51603 6.61276C1.54661 6.61276 1.56231 6.60806 1.57147 6.60439C1.58329 6.59966 1.59378 6.59298 1.62028 6.57511C1.64422 6.55896 1.68423 6.53173 1.73603 6.51096C1.79052 6.48911 1.85168 6.47679 1.9243 6.47679C2.03495 6.47679 2.09137 6.48191 2.145 6.4869C2.19225 6.49129 2.23683 6.49561 2.33258 6.49562C2.42481 6.49562 2.46782 6.48946 2.51422 6.48306C2.56944 6.47545 2.62874 6.46738 2.74085 6.46737C2.83977 6.46737 2.8889 6.46609 2.93853 6.46493C2.98975 6.46374 3.04184 6.46249 3.14458 6.46249C3.21981 6.46249 3.28329 6.47757 3.33913 6.50329C3.39142 6.52737 3.43169 6.55878 3.45523 6.57685C3.48204 6.59743 3.49228 6.60467 3.503 6.60962C3.51022 6.61295 3.52264 6.61764 3.54832 6.61764C3.58249 6.61764 3.59091 6.61208 3.63548 6.57476C3.69175 6.52766 3.78446 6.44855 3.95206 6.44855C4.02561 6.44857 4.08781 6.46208 4.14277 6.48585C4.19454 6.50826 4.23448 6.5378 4.25818 6.55489C4.28492 6.57417 4.2954 6.58105 4.30664 6.58592C4.3147 6.5894 4.32824 6.59392 4.35545 6.59393H4.75919C4.81131 6.59393 4.8278 6.58343 4.86866 6.55872C4.92871 6.52242 5.01327 6.47191 5.16293 6.47191C5.31243 6.47193 5.39682 6.52243 5.45684 6.55872C5.49767 6.58341 5.5143 6.59392 5.56632 6.59393C5.65216 6.59393 5.69109 6.58656 5.73576 6.57825C5.79196 6.56779 5.8542 6.55663 5.97005 6.55663C6.06332 6.55663 6.10785 6.55232 6.15519 6.54791C6.20869 6.54293 6.26535 6.5378 6.37379 6.5378C6.44639 6.53779 6.47543 6.52676 6.51674 6.51235C6.57629 6.49158 6.64815 6.46739 6.77718 6.46737C6.89877 6.46737 6.9654 6.48393 7.02333 6.49875C7.06629 6.50974 7.10077 6.51897 7.18092 6.51897C7.28371 6.51897 7.33574 6.52022 7.38697 6.52142C7.43664 6.52257 7.48565 6.52351 7.58466 6.52351H7.9884C8.05906 6.52349 8.08685 6.51262 8.12786 6.49736C8.18771 6.47509 8.26081 6.44856 8.39179 6.44855Z" fill="white"/>
<path d="M24.7303 0.651702C24.8266 0.67284 24.8878 0.768084 24.8666 0.86438C24.8421 0.976139 24.8173 1.03364 24.7952 1.08508C24.7779 1.12506 24.7624 1.16044 24.7446 1.24371C24.7403 1.26358 24.7384 1.26743 24.7767 1.32425C24.8168 1.3838 24.9005 1.50003 24.8617 1.67639C24.8269 1.83482 24.7358 1.90761 24.6811 1.95252C24.6553 1.97375 24.6462 1.98224 24.6393 1.99122C24.6348 1.99713 24.6278 2.00758 24.6226 2.03201C24.5982 2.1458 24.5738 2.20456 24.5511 2.25724C24.5334 2.29846 24.5179 2.33249 24.5002 2.41309C24.4947 2.43807 24.4956 2.4441 24.5274 2.49886C24.5637 2.56144 24.6311 2.67279 24.5943 2.84019C24.5641 2.97798 24.5061 3.04798 24.4629 3.09958C24.4334 3.1348 24.4184 3.15171 24.4064 3.20627C24.3925 3.26961 24.3981 3.296 24.4057 3.33945C24.4169 3.40332 24.4299 3.48326 24.4019 3.61384C24.375 3.73942 24.3372 3.80324 24.3049 3.8565C24.2832 3.89238 24.2673 3.91787 24.252 3.98934C24.2223 4.12784 24.167 4.19741 24.1236 4.25013C24.0952 4.28474 24.0807 4.30077 24.0686 4.35612C24.0588 4.40055 24.0646 4.41544 24.0822 4.46176C24.1073 4.52815 24.1431 4.62396 24.1111 4.77311C24.0839 4.89978 24.0441 4.96546 24.0103 5.01961C23.9869 5.05727 23.9707 5.08192 23.9559 5.1493C23.932 5.2586 23.9094 5.31556 23.889 5.36721C23.8723 5.4094 23.8571 5.44788 23.8388 5.53352C23.823 5.60742 23.8266 5.64031 23.8304 5.68344C23.8359 5.74438 23.8417 5.81659 23.8151 5.93795C23.7939 6.0342 23.6987 6.09506 23.6024 6.07393C23.5062 6.05275 23.4453 5.95752 23.4664 5.86125C23.482 5.79024 23.4787 5.75898 23.4748 5.71551C23.4693 5.65429 23.4634 5.58161 23.4898 5.45856C23.5137 5.34709 23.5359 5.28896 23.5567 5.23612C23.5739 5.19279 23.5891 5.15589 23.6073 5.07295C23.6347 4.94804 23.6746 4.88324 23.7074 4.83064C23.7299 4.79445 23.7467 4.76857 23.7617 4.69815C23.772 4.65024 23.7656 4.63334 23.7485 4.58832C23.7238 4.52322 23.6875 4.42771 23.7199 4.27977C23.75 4.14279 23.806 4.07414 23.8479 4.02316C23.8749 3.9903 23.8901 3.9729 23.9026 3.91438C23.9295 3.78883 23.9673 3.72498 23.9995 3.67172C24.0213 3.63583 24.0376 3.61037 24.0529 3.53888C24.0671 3.47247 24.0614 3.44433 24.0539 3.40151C24.0428 3.33825 24.0295 3.25889 24.0578 3.12992C24.088 2.99215 24.146 2.92212 24.1892 2.87052C24.2187 2.83532 24.2337 2.81832 24.2457 2.76383C24.2512 2.73886 24.2502 2.73277 24.2185 2.67806C24.1822 2.6155 24.1149 2.50409 24.1515 2.33673C24.1761 2.22501 24.2009 2.16746 24.223 2.11604C24.2402 2.07604 24.2557 2.04067 24.2736 1.9574C24.2894 1.88332 24.3178 1.82374 24.3555 1.77436C24.3908 1.72813 24.4312 1.69593 24.4545 1.67674C24.4984 1.6407 24.5057 1.63353 24.5131 1.59969C24.5166 1.58366 24.5203 1.5825 24.4807 1.52368C24.4392 1.4621 24.3576 1.34591 24.3956 1.16875C24.42 1.05507 24.4444 0.996517 24.4671 0.943872C24.4848 0.902619 24.4999 0.868322 24.5176 0.787676C24.5388 0.691429 24.634 0.630604 24.7303 0.651702Z" fill="white"/>
<path d="M7.02404 0.657804C7.11954 0.633374 7.2168 0.690966 7.24125 0.786456C7.25899 0.855811 7.27729 0.878978 7.30365 0.91476C7.34296 0.968098 7.39041 1.03417 7.42429 1.16649C7.46034 1.30742 7.44088 1.3964 7.42533 1.46423C7.41507 1.50903 7.40873 1.53311 7.42429 1.59393C7.4445 1.67288 7.46291 1.70399 7.4853 1.74246C7.51602 1.79522 7.55198 1.85697 7.58362 1.9778C7.6004 2.04179 7.61843 2.06387 7.64812 2.10261C7.69049 2.15791 7.74106 2.22715 7.77259 2.36271C7.79853 2.47429 7.80398 2.53453 7.80955 2.58898C7.8142 2.63443 7.81892 2.67701 7.84197 2.76714C7.86179 2.84463 7.8806 2.87489 7.90403 2.91427C7.93637 2.96863 7.97307 3.03187 8.00235 3.15484C8.02412 3.24628 8.03886 3.28987 8.05465 3.33614C8.0722 3.38759 8.09128 3.44332 8.1188 3.55091C8.1469 3.66077 8.15518 3.71971 8.16273 3.77509C8.16925 3.82293 8.17515 3.86734 8.19864 3.95918C8.23471 4.10018 8.21524 4.18908 8.19969 4.25693C8.18943 4.30168 8.18311 4.32553 8.19864 4.38628C8.21415 4.44692 8.23128 4.46516 8.26244 4.50064C8.30925 4.55392 8.36851 4.62353 8.40156 4.76561C8.43181 4.89571 8.42222 4.97453 8.41481 5.03791C8.40971 5.08148 8.40555 5.11271 8.42387 5.18434C8.45942 5.32338 8.44213 5.41069 8.42805 5.47826C8.41867 5.5233 8.41273 5.5488 8.42875 5.61144C8.45266 5.70488 8.46834 5.7485 8.48488 5.79483C8.50351 5.84699 8.5231 5.90211 8.55078 6.0103C8.57799 6.11667 8.5884 6.17313 8.59785 6.22855C8.60655 6.27959 8.614 6.32697 8.6362 6.4224C8.65851 6.51842 8.59868 6.61449 8.50267 6.63682C8.40666 6.65912 8.31057 6.5993 8.28825 6.50329C8.26351 6.39691 8.25461 6.34073 8.24571 6.28852C8.23757 6.2408 8.22926 6.19402 8.20492 6.09885C8.18098 6.00528 8.16535 5.96149 8.14878 5.91512C8.13016 5.86296 8.11057 5.80784 8.08289 5.69965C8.04735 5.56062 8.06463 5.4733 8.07871 5.40574C8.08809 5.36069 8.09403 5.33519 8.07801 5.27255C8.04475 5.14246 8.05242 5.06312 8.06023 4.99642C8.06571 4.94957 8.07026 4.9181 8.0536 4.8465C8.03972 4.7868 8.02379 4.76952 7.99433 4.73598C7.94923 4.68463 7.88888 4.61594 7.85278 4.47484C7.81671 4.33384 7.83619 4.24494 7.85173 4.17709C7.86199 4.13233 7.86833 4.10853 7.85278 4.04774C7.82468 3.93788 7.8164 3.87894 7.80885 3.82356C7.80233 3.77572 7.79643 3.73133 7.77294 3.63947C7.74884 3.54526 7.73293 3.49983 7.71646 3.45155C7.69823 3.39813 7.68024 3.34307 7.65509 3.23747C7.63746 3.16345 7.61998 3.13523 7.59722 3.09697C7.56552 3.04368 7.52791 2.97996 7.49611 2.8557C7.46754 2.74401 7.46053 2.68305 7.45462 2.62524C7.44964 2.57653 7.44556 2.53359 7.42464 2.4436C7.40924 2.37741 7.39182 2.35481 7.36502 2.31982C7.32553 2.26829 7.27294 2.20108 7.23811 2.0681C7.21813 1.99183 7.19999 1.96194 7.17674 1.92201C7.14519 1.86782 7.10982 1.80485 7.07843 1.68214C7.04242 1.54131 7.06184 1.45255 7.07738 1.38474C7.08764 1.33995 7.09398 1.31586 7.07843 1.25504C7.06068 1.18572 7.04239 1.16254 7.01602 1.12674C6.97671 1.07339 6.92925 1.00739 6.89538 0.875013C6.87095 0.779514 6.92855 0.682253 7.02404 0.657804Z" fill="white"/>
<path d="M23.5747 6.95187C23.6233 6.86618 23.7323 6.83628 23.818 6.88493C23.9037 6.9336 23.934 7.04255 23.8853 7.12829C23.7981 7.28186 23.6654 7.31752 23.5949 7.33818C23.5292 7.35741 23.5257 7.36176 23.5143 7.38176C23.4899 7.42487 23.4912 7.44296 23.4931 7.49123C23.4959 7.56164 23.499 7.66089 23.4261 7.79282C23.3797 7.87686 23.3607 7.91807 23.3418 7.96017C23.3209 8.00669 23.2994 8.05692 23.2497 8.15123C23.1945 8.25623 23.1523 8.3063 23.1134 8.35136C23.0837 8.38569 23.0586 8.41398 23.0179 8.48768C22.9588 8.59452 22.9128 8.64407 22.8721 8.68746C22.8424 8.71914 22.8181 8.74472 22.7787 8.81611C22.7416 8.88327 22.7354 8.91546 22.7267 8.95801C22.7143 9.01869 22.6993 9.08989 22.6378 9.20102C22.578 9.30929 22.5295 9.35987 22.4865 9.40359C22.4552 9.43543 22.431 9.45927 22.3927 9.52666C22.3352 9.62809 22.2925 9.67706 22.2543 9.72051C22.2245 9.75447 22.199 9.78298 22.1581 9.85509C22.1418 9.88382 22.1421 9.89349 22.1525 9.95097C22.1655 10.0225 22.1886 10.1419 22.1065 10.2867C22.0523 10.3822 22.0172 10.4298 21.9859 10.4729C21.9591 10.5097 21.9344 10.5438 21.8924 10.6214C21.8406 10.7173 21.8063 10.7652 21.7739 10.8104C21.746 10.8492 21.72 10.8851 21.6756 10.9655C21.6177 11.0702 21.5745 11.1201 21.5351 11.1643C21.505 11.198 21.4802 11.225 21.4399 11.2961C21.3865 11.3901 21.3534 11.4366 21.3227 11.4802C21.2959 11.5183 21.2703 11.5549 21.2251 11.6367C21.1746 11.728 21.1477 11.7735 21.1209 11.818C21.0951 11.8607 21.0702 11.9014 21.0222 11.986C20.9959 12.0323 20.9963 12.0535 20.9967 12.1001C20.9974 12.1672 20.999 12.2633 20.9301 12.3908C20.8722 12.498 20.8232 12.5494 20.7799 12.5934C20.7476 12.6262 20.7224 12.6511 20.6843 12.7182C20.6322 12.81 20.6015 12.8561 20.5721 12.9002C20.5452 12.9405 20.5194 12.9789 20.4731 13.0606C20.4065 13.1778 20.3413 13.228 20.2893 13.2673C20.2545 13.2937 20.2328 13.3092 20.2008 13.3657C20.1591 13.4391 20.1469 13.4759 20.1324 13.5184C20.1141 13.5721 20.0934 13.6316 20.0365 13.7317C19.9994 13.7972 19.9924 13.8299 19.9825 13.8733C19.9689 13.9332 19.9526 14.0039 19.8912 14.1121C19.8411 14.2003 19.8145 14.2449 19.7883 14.2889C19.7629 14.3317 19.7377 14.3741 19.6893 14.4594C19.6573 14.5157 19.6553 14.5419 19.6506 14.5856C19.6436 14.6506 19.634 14.7327 19.5683 14.8516C19.5052 14.9659 19.4485 15.0173 19.3999 15.0594C19.3668 15.0881 19.3441 15.1066 19.3093 15.1678C19.2585 15.2574 19.2299 15.3032 19.2036 15.3463C19.1786 15.3874 19.1544 15.4282 19.1091 15.512C19.0387 15.6423 18.9537 15.6924 18.894 15.7274C18.8528 15.7516 18.8341 15.762 18.8079 15.8094C18.7668 15.8838 18.7556 15.9205 18.7424 15.9635C18.7252 16.019 18.7056 16.0811 18.6482 16.1849C18.6368 16.2056 18.6356 16.217 18.6353 16.2236C18.6349 16.2347 18.6368 16.247 18.6437 16.2814C18.6496 16.3112 18.6609 16.3636 18.6587 16.423C18.6563 16.4871 18.6393 16.553 18.6015 16.6214C18.5648 16.6878 18.5205 16.7365 18.4701 16.773C18.4229 16.8071 18.375 16.8264 18.3477 16.8379C18.3164 16.851 18.3056 16.8564 18.2964 16.863C18.2905 16.8673 18.2807 16.8755 18.2682 16.8982C18.2124 16.9991 18.1743 17.0475 18.1392 17.0917C18.1109 17.1273 18.0857 17.1587 18.043 17.236C18.012 17.2921 18.0112 17.3171 18.0084 17.3605C18.0042 17.4274 17.9979 17.5127 17.9303 17.6349C17.8892 17.7094 17.8779 17.7462 17.8645 17.789C17.847 17.8446 17.8274 17.9059 17.7696 18.0076C17.7051 18.1212 17.6443 18.1725 17.5949 18.2137C17.5599 18.2429 17.5362 18.2622 17.5022 18.3221C17.4555 18.4043 17.4351 18.4463 17.414 18.4901C17.3912 18.5376 17.367 18.588 17.3153 18.6815C17.2733 18.7576 17.2609 18.7957 17.2463 18.8395C17.228 18.8943 17.2076 18.9548 17.1511 19.057C17.1163 19.12 17.0764 19.1672 17.0315 19.2042C16.9888 19.2393 16.9459 19.2612 16.9203 19.2746C16.8921 19.2893 16.8809 19.2956 16.8708 19.3039C16.8629 19.3104 16.8511 19.322 16.8366 19.3482C16.7889 19.4344 16.6802 19.4656 16.594 19.4179C16.5078 19.3702 16.4766 19.2615 16.5242 19.1752C16.5591 19.1123 16.5989 19.065 16.6438 19.0281C16.6865 18.993 16.7294 18.9714 16.755 18.958C16.7834 18.9432 16.7944 18.9367 16.8046 18.9284C16.8124 18.9219 16.8243 18.9106 16.8387 18.8845C16.8807 18.8084 16.8932 18.7703 16.9078 18.7265C16.926 18.6717 16.9464 18.6112 17.0029 18.509C17.0498 18.4241 17.0704 18.3806 17.0922 18.3353C17.1156 18.2866 17.1398 18.2369 17.1916 18.1457C17.256 18.0321 17.3168 17.9808 17.3662 17.9396C17.4013 17.9104 17.4253 17.8911 17.4593 17.8312C17.5001 17.7594 17.5107 17.7241 17.5238 17.6823C17.5409 17.6278 17.5603 17.566 17.6176 17.4623C17.6486 17.4063 17.6494 17.3812 17.6521 17.3378C17.6564 17.271 17.663 17.1857 17.7306 17.0635C17.7864 16.9625 17.8245 16.9138 17.8596 16.8696C17.8878 16.8341 17.9131 16.8026 17.9558 16.7253C17.9925 16.6589 18.0365 16.6101 18.0869 16.5736C18.134 16.5395 18.1819 16.5202 18.2093 16.5087C18.2405 16.4956 18.2514 16.4902 18.2605 16.4836C18.2664 16.4794 18.2762 16.4711 18.2888 16.4484C18.3003 16.4276 18.3014 16.4163 18.3017 16.4097C18.3021 16.3986 18.3006 16.3861 18.2936 16.3515C18.2877 16.3217 18.2764 16.2694 18.2786 16.21C18.2811 16.1459 18.2981 16.0802 18.3358 16.0119C18.377 15.9374 18.3881 15.9008 18.4014 15.8578C18.4186 15.8022 18.4381 15.7402 18.4955 15.6364C18.5679 15.5055 18.6525 15.4549 18.7134 15.4192C18.7557 15.3944 18.7716 15.3854 18.795 15.3422C18.8435 15.2525 18.8708 15.2065 18.8986 15.1609C18.9251 15.1172 18.9509 15.0759 18.9986 14.9918C19.0623 14.8796 19.1194 14.83 19.166 14.7895C19.1972 14.7625 19.2205 14.7431 19.2559 14.679C19.2886 14.6198 19.2909 14.5916 19.2957 14.5476C19.3027 14.4822 19.3121 14.4003 19.3786 14.283C19.4287 14.1947 19.4554 14.1502 19.4815 14.1062C19.507 14.0634 19.5321 14.021 19.5805 13.9357C19.6176 13.8703 19.6247 13.8375 19.6346 13.7942C19.6482 13.7343 19.6648 13.6639 19.7262 13.5557C19.768 13.4822 19.7801 13.4454 19.7946 13.403C19.8129 13.3492 19.8336 13.2897 19.8905 13.1896C19.9569 13.0725 20.0219 13.0222 20.0739 12.9828C20.1087 12.9565 20.1304 12.9409 20.1624 12.8845C20.2146 12.7926 20.2456 12.7463 20.275 12.7022C20.3019 12.6619 20.3274 12.6234 20.3737 12.5418C20.4341 12.4354 20.4841 12.385 20.5257 12.3427C20.5563 12.3117 20.5801 12.2875 20.616 12.221C20.6409 12.175 20.6402 12.1536 20.6397 12.1035C20.639 12.0329 20.6394 11.9367 20.7115 11.8096C20.7621 11.7206 20.7892 11.6765 20.8151 11.6336C20.8399 11.5924 20.8644 11.5509 20.9124 11.4641C20.9657 11.3677 20.9991 11.3196 21.0309 11.2744C21.0588 11.2348 21.0845 11.199 21.1296 11.1196C21.1877 11.0173 21.2308 10.969 21.2687 10.9265C21.2973 10.8944 21.3224 10.8667 21.3632 10.793C21.4172 10.6952 21.4522 10.6467 21.4841 10.6022C21.5116 10.5641 21.5362 10.5294 21.5783 10.4516C21.63 10.3559 21.6642 10.308 21.6972 10.2627C21.7256 10.2236 21.7515 10.1888 21.7958 10.1107C21.8122 10.0819 21.8119 10.0722 21.8014 10.0148C21.7884 9.94318 21.7652 9.8236 21.8474 9.67867C21.905 9.57724 21.9477 9.52827 21.9859 9.48482C22.0157 9.45086 22.0412 9.42236 22.0821 9.35024C22.1423 9.24408 22.191 9.19491 22.2324 9.15291C22.262 9.12276 22.2864 9.09804 22.3251 9.02809C22.3621 8.96104 22.3684 8.929 22.377 8.88654C22.3895 8.82586 22.4046 8.75462 22.466 8.64353C22.525 8.53663 22.571 8.4868 22.6117 8.4434C22.6414 8.41171 22.666 8.38616 22.7055 8.31475C22.7632 8.21025 22.806 8.1608 22.8432 8.11776C22.8711 8.08541 22.895 8.05809 22.9335 7.98492C22.9777 7.90088 22.9959 7.85908 23.0161 7.81408C23.0383 7.7647 23.0617 7.71446 23.1137 7.62023C23.1394 7.57383 23.138 7.55328 23.1361 7.50518C23.1333 7.435 23.1301 7.3357 23.204 7.20534C23.2913 7.05178 23.424 7.0161 23.4945 6.99545C23.56 6.97625 23.5633 6.97186 23.5747 6.95187Z" fill="white"/>
<path d="M8.7923 7.15908C8.87952 7.11326 8.98732 7.14684 9.03322 7.23404C9.10384 7.3683 9.09628 7.46931 9.09075 7.53981C9.08689 7.58897 9.08501 7.6077 9.10818 7.65173C9.135 7.70268 9.15391 7.71431 9.1922 7.74063C9.25006 7.78041 9.32462 7.83376 9.39094 7.96307C9.42795 8.03524 9.45185 8.06064 9.48054 8.09172C9.52067 8.1352 9.56731 8.18592 9.62453 8.29464C9.70798 8.45319 9.66388 8.58523 9.64196 8.65584C9.62165 8.72129 9.6236 8.72544 9.63395 8.7451C9.66718 8.80824 9.69047 8.82857 9.7232 8.85841C9.77023 8.90129 9.82685 8.95392 9.88741 9.06899C9.91932 9.12961 9.94136 9.14756 9.97423 9.17533C10.0229 9.21645 10.0841 9.26817 10.1486 9.38487C10.1854 9.45157 10.203 9.51544 10.2068 9.57803C10.2104 9.63673 10.2009 9.68801 10.1956 9.71818C10.1857 9.77446 10.1843 9.78648 10.2019 9.81999C10.25 9.91134 10.2733 9.95882 10.296 10.0055C10.3179 10.0503 10.3392 10.0943 10.3849 10.1812C10.4093 10.2274 10.4265 10.2372 10.4686 10.2631C10.5299 10.3009 10.6128 10.3538 10.6816 10.488C10.7455 10.6125 10.7497 10.6984 10.7531 10.7638C10.7553 10.8062 10.7561 10.831 10.7869 10.8869C10.8032 10.9162 10.8119 10.9211 10.8699 10.9433C10.8996 10.9547 10.9508 10.9738 11.0007 11.0089C11.0543 11.0467 11.1004 11.0981 11.1366 11.1686C11.2159 11.3231 11.1814 11.448 11.1631 11.5193C11.154 11.5548 11.152 11.567 11.152 11.5772C11.152 11.5821 11.1522 11.591 11.1624 11.6096C11.1768 11.6356 11.1884 11.647 11.1963 11.6535C11.2064 11.6618 11.2175 11.6684 11.2458 11.6832C11.2714 11.6965 11.3143 11.7185 11.357 11.7536C11.4019 11.7905 11.4421 11.8377 11.4769 11.9007C11.5424 12.0194 11.552 12.1002 11.5585 12.1675C11.5629 12.213 11.5649 12.2423 11.5969 12.3045C11.6312 12.3715 11.6546 12.3933 11.6854 12.4227C11.7302 12.4654 11.7848 12.5174 11.8447 12.6312C11.9383 12.809 11.9378 12.8088 12.0362 12.9913C12.1038 13.117 12.1086 13.2043 12.1108 13.2737C12.1122 13.3191 12.1121 13.3426 12.1404 13.3965C12.1684 13.4496 12.188 13.463 12.2244 13.4888C12.279 13.5275 12.3516 13.5791 12.42 13.7029C12.4567 13.7693 12.4809 13.7911 12.5128 13.8211C12.5583 13.8639 12.6116 13.9149 12.6735 14.0268C12.7442 14.1548 12.7453 14.2479 12.7453 14.3172C12.7453 14.3629 12.7443 14.3848 12.7722 14.4351C12.8042 14.493 12.8266 14.5092 12.8618 14.5358C12.9141 14.5756 12.9806 14.627 13.0451 14.7464C13.1291 14.9019 13.0868 15.0344 13.0675 15.1031C13.0494 15.1672 13.0512 15.1736 13.0633 15.1955C13.0952 15.2532 13.1176 15.2695 13.1536 15.297C13.2066 15.3374 13.2735 15.3895 13.3401 15.51C13.3913 15.6026 13.4151 15.6514 13.4381 15.6986C13.4596 15.7428 13.4805 15.7857 13.5277 15.8712C13.5871 15.9788 13.6051 16.0458 13.6197 16.1065C13.6307 16.1518 13.6384 16.1878 13.6759 16.261C13.6914 16.2913 13.7042 16.306 13.7128 16.3143C13.7226 16.3238 13.7329 16.3311 13.7571 16.3467C13.8142 16.3836 13.8931 16.4346 13.9614 16.5643C14.032 16.6985 14.0244 16.7996 14.0196 16.8687C14.0175 16.8992 14.0171 16.912 14.0189 16.9248C14.0204 16.9352 14.0246 16.9518 14.0395 16.9788C14.0645 17.024 14.0818 17.0332 14.1263 17.0587C14.1521 17.0735 14.1934 17.097 14.2344 17.134C14.2771 17.1725 14.3145 17.221 14.347 17.2843C14.3954 17.3785 14.4178 17.4267 14.4394 17.4722C14.4599 17.5153 14.4806 17.5586 14.5283 17.6472C14.562 17.7098 14.581 17.7678 14.589 17.8243C14.5966 17.8787 14.5931 17.9255 14.5911 17.9547C14.5876 18.0041 14.5855 18.0219 14.6088 18.0663C14.6432 18.1316 14.6671 18.1539 14.6992 18.1845C14.7439 18.2273 14.7986 18.2795 14.8606 18.3916C14.8986 18.4604 14.9237 18.4847 14.9565 18.5185C15.001 18.5645 15.0499 18.6175 15.1074 18.7298C15.1694 18.8507 15.1771 18.9321 15.1827 18.9979C15.1865 19.0424 15.1882 19.0715 15.22 19.1335C15.2639 19.2191 15.2879 19.2574 15.3128 19.296C15.3405 19.339 15.3716 19.3856 15.424 19.4804C15.4867 19.5939 15.5005 19.6685 15.5112 19.7332C15.5187 19.7792 15.5233 19.8122 15.5579 19.8796C15.572 19.9071 15.5837 19.9196 15.5917 19.9267C15.6015 19.9354 15.6127 19.9424 15.6398 19.9577C15.7007 19.9922 15.7909 20.0428 15.8623 20.1784C15.933 20.3129 15.9252 20.4154 15.9198 20.4863C15.9158 20.5374 15.9142 20.5569 15.9372 20.6006C15.9472 20.6196 15.9491 20.6238 16.0181 20.6453C16.0913 20.668 16.2262 20.7074 16.312 20.8667C16.3587 20.9534 16.3263 21.0619 16.2395 21.1086C16.1527 21.1554 16.0443 21.1229 15.9975 21.0361C15.9848 21.0124 15.9786 21.0069 15.9121 20.9862C15.8417 20.9643 15.7052 20.9262 15.6213 20.7669C15.5506 20.6324 15.5584 20.5299 15.5638 20.4591C15.5677 20.408 15.5693 20.3884 15.5464 20.3447C15.524 20.3021 15.5084 20.2937 15.4637 20.2684C15.438 20.2538 15.3961 20.2303 15.3546 20.1934C15.3113 20.1549 15.273 20.1064 15.2403 20.0424C15.181 19.9269 15.169 19.8518 15.159 19.7911C15.1521 19.749 15.1474 19.7178 15.1116 19.653C15.0655 19.5696 15.04 19.5317 15.0126 19.4891C14.9823 19.4421 14.9523 19.3936 14.9024 19.2963C14.8404 19.1754 14.8327 19.094 14.8271 19.0282C14.8233 18.9837 14.8216 18.9546 14.7898 18.8926C14.7535 18.8219 14.7295 18.7973 14.7002 18.7671C14.659 18.7246 14.6087 18.6736 14.5482 18.5642C14.5116 18.4981 14.4864 18.4751 14.4527 18.4428C14.4062 18.3984 14.3524 18.3455 14.293 18.2326C14.2225 18.0987 14.23 17.999 14.2347 17.93C14.2368 17.9001 14.2373 17.8873 14.2354 17.8742C14.2339 17.8631 14.2297 17.8452 14.2142 17.8163C14.1634 17.722 14.1395 17.6736 14.1166 17.6252C14.0947 17.5793 14.0749 17.5358 14.0294 17.4471C14.0149 17.4189 14.0031 17.406 13.9952 17.399C13.9857 17.3904 13.975 17.3836 13.9489 17.3686C13.8889 17.3343 13.8004 17.2846 13.7268 17.1514C13.6925 17.0895 13.6735 17.0317 13.6654 16.975C13.6577 16.9207 13.6613 16.8736 13.6633 16.8443C13.6668 16.7936 13.6688 16.7748 13.6455 16.7306C13.6199 16.682 13.6024 16.6719 13.5632 16.6466C13.5394 16.6312 13.5018 16.6071 13.4639 16.5702C13.4247 16.5321 13.3896 16.485 13.3582 16.4238C13.302 16.3141 13.2861 16.2469 13.2725 16.1902C13.2625 16.1488 13.2544 16.1145 13.2153 16.0438C13.1641 15.9511 13.1403 15.9024 13.1173 15.8551C13.0958 15.8109 13.075 15.768 13.0277 15.6826C12.9957 15.6246 12.9732 15.6083 12.9371 15.5808C12.884 15.5403 12.8171 15.4885 12.7505 15.3681C12.6641 15.2116 12.7034 15.0793 12.724 15.0062C12.7433 14.9378 12.7408 14.9343 12.731 14.9162C12.7017 14.862 12.6816 14.8471 12.6459 14.82C12.5931 14.7798 12.5263 14.728 12.4598 14.6077C12.389 14.4797 12.3883 14.3866 12.3883 14.3172C12.3883 14.2716 12.3889 14.2497 12.3611 14.1994C12.3244 14.133 12.3003 14.1112 12.2684 14.0812C12.2228 14.0384 12.1695 13.9874 12.1076 13.8755C12.0776 13.8211 12.0561 13.807 12.018 13.78C11.9618 13.7401 11.8903 13.6877 11.8245 13.5628C11.759 13.4383 11.7562 13.3509 11.7541 13.2849C11.7528 13.2429 11.7528 13.2177 11.722 13.1604C11.6232 12.9769 11.6227 12.9763 11.5285 12.7975C11.4946 12.7331 11.4715 12.7121 11.4389 12.681C11.3923 12.6366 11.3383 12.5831 11.2789 12.4673C11.217 12.3466 11.2094 12.2655 11.2032 12.202C11.1992 12.1602 11.1971 12.1329 11.1642 12.0733C11.1498 12.0473 11.1382 12.0359 11.1304 12.0294C11.1203 12.0211 11.1091 12.0145 11.0808 11.9998C11.0552 11.9864 11.0123 11.9644 10.9696 11.9293C10.9247 11.8924 10.8845 11.8452 10.8497 11.7822C10.8108 11.7117 10.7948 11.6433 10.795 11.5765C10.7951 11.515 10.8094 11.4611 10.8173 11.4304C10.833 11.3691 10.8336 11.3599 10.819 11.3314C10.8084 11.3108 10.8001 11.3041 10.7953 11.3007C10.7867 11.2946 10.7753 11.2893 10.7423 11.2767C10.6748 11.2508 10.5568 11.2084 10.4745 11.0594C10.4069 10.9371 10.4004 10.8516 10.3968 10.7826C10.3944 10.7365 10.3937 10.7097 10.3637 10.6512C10.3386 10.6023 10.3206 10.5915 10.281 10.5671C10.2223 10.5309 10.1386 10.4796 10.0691 10.3475C10.021 10.2561 9.99766 10.2087 9.97493 10.162C9.95308 10.1172 9.93175 10.0732 9.88602 9.9863C9.80979 9.84146 9.8318 9.72651 9.84418 9.65612C9.85 9.62305 9.85113 9.61074 9.85046 9.59964C9.85001 9.59243 9.84841 9.58001 9.83616 9.5578C9.80212 9.4962 9.77841 9.47726 9.74377 9.44798C9.69342 9.40542 9.63341 9.35286 9.57154 9.2353C9.5383 9.17216 9.51535 9.15183 9.48263 9.12199C9.43557 9.07908 9.3787 9.02661 9.31807 8.9114C9.23462 8.75283 9.27907 8.6208 9.30098 8.5502C9.3213 8.48473 9.31901 8.48062 9.30865 8.46095C9.27201 8.39132 9.24827 8.36683 9.218 8.33404C9.17632 8.28888 9.13012 8.23667 9.07331 8.12589C9.04576 8.07217 9.026 8.05965 8.98999 8.03489C8.93452 7.99677 8.85926 7.94523 8.7923 7.81803C8.72161 7.68371 8.72924 7.58244 8.73477 7.51192C8.73863 7.46276 8.74051 7.44403 8.71734 7.4C8.67151 7.31278 8.7051 7.20498 8.7923 7.15908Z" fill="white"/>
<path d="M14.845 0.68797C14.9213 0.625552 15.0336 0.636774 15.096 0.713073C15.1585 0.789371 15.1472 0.901673 15.0709 0.964102C14.9693 1.04729 14.8954 1.07235 14.8349 1.09206C14.7945 1.1052 14.7675 1.11304 14.7143 1.15656C14.6751 1.18864 14.6689 1.20755 14.6533 1.25244C14.6309 1.31676 14.5985 1.41099 14.4838 1.50416C14.3711 1.59572 14.2761 1.61014 14.2084 1.61991C14.162 1.62661 14.142 1.62899 14.1017 1.66071C14.0534 1.69878 14.0428 1.7212 14.0232 1.75938C13.9935 1.81738 13.9546 1.89132 13.8482 1.97519C13.775 2.03284 13.7417 2.06309 13.707 2.09443C13.669 2.12877 13.6293 2.16436 13.5477 2.22866C13.4876 2.27599 13.4683 2.30321 13.4445 2.33639C13.4114 2.38246 13.3719 2.43859 13.2803 2.51595C13.1711 2.60805 13.082 2.62646 13.0153 2.63937C12.9723 2.6477 12.951 2.65093 12.9072 2.68679C12.8644 2.72183 12.8575 2.74173 12.8417 2.78232C12.8176 2.84418 12.7841 2.93055 12.6747 3.02289C12.5996 3.08622 12.5619 3.11777 12.5244 3.14945C12.4869 3.18112 12.4495 3.21303 12.3745 3.27636C12.2244 3.40298 12.2152 3.40571 12.0673 3.52669C11.9855 3.59364 11.9419 3.6247 11.9 3.65429C11.8621 3.68102 11.8259 3.70647 11.7528 3.76621C11.6972 3.81176 11.6421 3.84033 11.5862 3.85721C11.5332 3.87319 11.4851 3.87661 11.4572 3.87883C11.426 3.8813 11.4153 3.88272 11.4052 3.8858C11.3983 3.88793 11.3856 3.89258 11.3651 3.90986C11.2932 3.97054 11.2593 4.00252 11.2232 4.03572C11.1847 4.07115 11.1454 4.10659 11.067 4.1703C11.0169 4.21102 11.0042 4.23487 10.9834 4.27176C10.9526 4.32629 10.9135 4.39415 10.8136 4.47537C10.7253 4.54704 10.67 4.57562 10.6208 4.60123C10.5833 4.62069 10.5502 4.63788 10.4855 4.69083C10.3852 4.7729 10.3125 4.79893 10.2522 4.81949C10.2108 4.83363 10.1843 4.84196 10.133 4.88364C10.0524 4.94909 10.0076 4.97931 9.9639 5.00846C9.92502 5.03438 9.88842 5.05841 9.81642 5.11514C9.75406 5.16428 9.73331 5.19134 9.70764 5.22392C9.67232 5.26875 9.63201 5.31915 9.53959 5.39197C9.51695 5.40982 9.50823 5.42259 9.50368 5.43032C9.49785 5.44024 9.49347 5.45089 9.48416 5.47914C9.46308 5.54305 9.43226 5.63883 9.31646 5.73295C9.23997 5.7951 9.12761 5.78359 9.06543 5.70715C9.00328 5.63067 9.01479 5.51831 9.09123 5.45612C9.12552 5.42826 9.12998 5.41358 9.14527 5.36722C9.15414 5.34032 9.16843 5.29598 9.19582 5.24937C9.22456 5.20051 9.26378 5.15482 9.31855 5.11166C9.38092 5.06252 9.40166 5.03546 9.42733 5.00288C9.46266 4.95803 9.50325 4.90769 9.59573 4.83483C9.67848 4.76963 9.72384 4.73943 9.76587 4.71141C9.80309 4.68659 9.83824 4.66295 9.90777 4.60646C10.0066 4.52614 10.079 4.50151 10.1372 4.48164C10.1766 4.4682 10.2051 4.45894 10.2596 4.41435C10.3496 4.34071 10.4057 4.31093 10.4562 4.28466C10.4949 4.26452 10.5265 4.24844 10.5883 4.19819C10.6386 4.15738 10.6515 4.13337 10.6724 4.09638C10.7031 4.04188 10.742 3.97426 10.8418 3.89312C10.9136 3.8348 10.9474 3.80429 10.9816 3.77284C11.0182 3.73922 11.057 3.70308 11.135 3.63721C11.1896 3.59113 11.2443 3.56169 11.3003 3.54447C11.353 3.52828 11.4011 3.52506 11.4289 3.52285C11.4602 3.52038 11.4718 3.51889 11.483 3.51553C11.4912 3.51305 11.5048 3.50754 11.5266 3.48973C11.6084 3.42281 11.652 3.39206 11.6939 3.36247C11.7318 3.33576 11.7681 3.31027 11.841 3.25056C12.0028 3.11819 11.9938 3.13013 12.144 3.00336C12.2191 2.94003 12.2568 2.90847 12.2943 2.8768C12.3318 2.84512 12.3695 2.81325 12.4446 2.74989C12.4852 2.7156 12.4917 2.69633 12.5087 2.65262C12.534 2.58766 12.5694 2.50188 12.6813 2.41031C12.7923 2.31949 12.8816 2.30141 12.9477 2.28863C12.99 2.28044 13.0088 2.27753 13.0498 2.24295C13.1082 2.19365 13.1277 2.16544 13.1544 2.12825C13.1904 2.07816 13.2322 2.02301 13.327 1.94834C13.4001 1.89076 13.4332 1.86076 13.4678 1.82945C13.5059 1.79508 13.5455 1.75925 13.6272 1.69487C13.6755 1.6568 13.6861 1.63473 13.7056 1.59656C13.7354 1.53852 13.7741 1.46434 13.8806 1.38039C13.9951 1.29023 14.0902 1.27609 14.1575 1.26638C14.2035 1.25974 14.2212 1.25769 14.2586 1.22733C14.2941 1.19849 14.2994 1.1824 14.3158 1.13529C14.3389 1.06875 14.3727 0.975047 14.4883 0.880426C14.59 0.797249 14.6639 0.77218 14.7244 0.752471C14.7647 0.739335 14.7918 0.731487 14.845 0.68797Z" fill="white"/>
<path d="M17.0032 0.722316C17.0631 0.644019 17.1752 0.629004 17.2535 0.688845C17.3526 0.764597 17.3951 0.822312 17.431 0.872933C17.4566 0.909073 17.4745 0.935656 17.5325 0.981364C17.5993 1.03406 17.6345 1.0535 17.6733 1.07445C17.7209 1.10015 17.7748 1.12864 17.863 1.19544C17.9438 1.25665 17.9843 1.2906 18.0241 1.32479C18.0614 1.35686 18.0966 1.38762 18.1708 1.44612C18.2351 1.49675 18.2676 1.51264 18.3047 1.53049C18.3536 1.55398 18.4112 1.58067 18.5042 1.64903C18.6149 1.73048 18.656 1.80542 18.6872 1.86485C18.708 1.90443 18.7178 1.92522 18.7642 1.96038C18.855 2.02916 18.897 2.07665 18.9347 2.12041C18.9642 2.15466 18.9887 2.1839 19.0533 2.23476C19.0642 2.2434 19.0619 2.24781 19.1324 2.23616C19.2048 2.2242 19.347 2.19726 19.4922 2.30833C19.6426 2.42335 19.6469 2.57921 19.6509 2.65315C19.6553 2.73449 19.6605 2.72677 19.6652 2.7302C19.6869 2.74667 19.6936 2.74798 19.7551 2.74414C19.8285 2.73956 19.9531 2.73111 20.0856 2.83549C20.1996 2.92531 20.2353 3.01272 20.2607 3.07606C20.2775 3.11826 20.2843 3.13661 20.3252 3.1688C20.4144 3.23909 20.4554 3.28541 20.4922 3.32744C20.5211 3.36047 20.5459 3.38911 20.6114 3.44075C20.6812 3.49576 20.7169 3.51776 20.7557 3.54151C20.8013 3.56936 20.8503 3.59901 20.9353 3.66598C20.9802 3.70134 21.0017 3.70477 21.0427 3.71235C21.1061 3.72407 21.1929 3.73982 21.3035 3.82357C21.3762 3.87863 21.4122 3.90217 21.451 3.92747C21.4939 3.95549 21.539 3.98509 21.6232 4.04949C21.7275 4.12931 21.7691 4.19583 21.8024 4.25032C21.8248 4.28711 21.8382 4.31013 21.8899 4.34933C21.9631 4.40478 22.0007 4.4295 22.0412 4.45672C22.0853 4.48628 22.13 4.51719 22.2117 4.58154C22.2912 4.6442 22.3306 4.6771 22.369 4.70949C22.4056 4.74044 22.4415 4.77082 22.5168 4.83012C22.538 4.84685 22.5516 4.85157 22.5597 4.85383C22.5708 4.85692 22.5825 4.85825 22.6137 4.86011C22.6415 4.86176 22.6896 4.86429 22.7424 4.87928C22.7984 4.89524 22.8535 4.92301 22.9087 4.96784C23.0223 5.06018 23.0545 5.15222 23.0771 5.21504C23.0921 5.25692 23.0977 5.27386 23.1363 5.30429C23.1584 5.32167 23.1723 5.32694 23.1806 5.32939C23.1915 5.3326 23.2031 5.33391 23.2333 5.33602C23.3008 5.34074 23.4032 5.34713 23.5233 5.43817C23.6387 5.52557 23.6751 5.61243 23.7008 5.67595C23.7178 5.71805 23.7244 5.73644 23.7653 5.76869C23.8427 5.82971 23.8559 5.94193 23.7949 6.01937C23.7339 6.09681 23.6217 6.11037 23.5443 6.04936C23.4304 5.95963 23.3948 5.87214 23.3696 5.80983C23.3531 5.76904 23.3473 5.75253 23.3079 5.72267C23.2732 5.69641 23.258 5.69583 23.2082 5.69234C23.1796 5.69034 23.1326 5.68714 23.0802 5.67177C23.0252 5.65559 22.9709 5.62812 22.9156 5.58461C22.7994 5.49303 22.765 5.40173 22.7413 5.33567C22.7251 5.29056 22.7198 5.27461 22.6834 5.24502C22.6636 5.2289 22.6516 5.22466 22.6447 5.22271C22.6347 5.21984 22.6238 5.2183 22.5924 5.21643C22.5645 5.21477 22.5164 5.21274 22.4634 5.19795C22.4075 5.18232 22.3523 5.1547 22.2961 5.11044C22.2166 5.0478 22.1772 5.01487 22.1388 4.98249C22.1022 4.95155 22.0662 4.92113 21.991 4.86185C21.9178 4.80417 21.8802 4.77866 21.8421 4.75307C21.8006 4.72516 21.7561 4.69569 21.6744 4.63383C21.5714 4.55574 21.5303 4.48968 21.4977 4.43615C21.4758 4.40035 21.4614 4.37509 21.4063 4.33295C21.3311 4.2754 21.2937 4.25101 21.2557 4.22626C21.2136 4.19879 21.1697 4.17025 21.0877 4.10807C21.0435 4.07465 21.0222 4.07164 20.9778 4.06344C20.9109 4.05107 20.8242 4.0333 20.7143 3.94664C20.6444 3.89162 20.6088 3.86964 20.5699 3.84588C20.5243 3.81803 20.4754 3.78839 20.3904 3.72141C20.3011 3.65107 20.2601 3.60447 20.2234 3.56243C20.1945 3.52941 20.1696 3.50075 20.1041 3.44912C19.9901 3.3593 19.9544 3.27189 19.9291 3.20855C19.9122 3.16631 19.9055 3.14801 19.8646 3.11581C19.8423 3.09827 19.8354 3.09685 19.7774 3.10047C19.7076 3.10483 19.5828 3.11551 19.4497 3.0147C19.2995 2.90092 19.298 2.74242 19.2942 2.67267C19.29 2.59521 19.2845 2.59873 19.2754 2.59178C19.2611 2.58087 19.2602 2.57715 19.1906 2.58865C19.1194 2.60042 18.9761 2.62841 18.8322 2.51508C18.7419 2.44392 18.7004 2.39567 18.6642 2.35365C18.6362 2.32117 18.6124 2.29337 18.5484 2.24488C18.4401 2.16278 18.4006 2.0874 18.371 2.0308C18.3517 1.99403 18.3413 1.97253 18.2925 1.93667C18.2259 1.88772 18.1917 1.87221 18.1503 1.85229C18.0971 1.82675 18.0404 1.79778 17.9498 1.72643C17.8693 1.66299 17.8292 1.62811 17.7915 1.59569C17.7562 1.56537 17.7215 1.53599 17.6475 1.47994C17.5808 1.4294 17.5454 1.411 17.5039 1.38859C17.4535 1.36143 17.3994 1.33136 17.3114 1.26203C17.2146 1.18577 17.1738 1.12765 17.1395 1.07933C17.1156 1.04556 17.097 1.01881 17.0367 0.972647C16.9584 0.912773 16.9434 0.800628 17.0032 0.722316Z" fill="white"/>
</svg>
